<svg id="Layer_1" data-name="Layer 1" xmlns="http://www.w3.org/2000/svg" viewBox="0 0 258.52 433.13"><defs><style>.cls-1{fill:#23374d;}.cls-2{fill:#7a7b7c;}</style></defs><path class="cls-1" d="M21.05,141l2.56-6.25h1.87L28.05,141H26.7l-.52-1.25H22.89L22.37,141Zm4.67-2.37-1.12-2.75h-.13l-1.12,2.75Z"/><path class="cls-1" d="M33.74,141H32.49v-6.25H37a1.77,1.77,0,0,1,1.88,1.88A1.75,1.75,0,0,1,37,138.44H33.74Zm0-3.69H37a.59.59,0,0,0,.63-.62v-.19a.59.59,0,0,0-.63-.62H33.74Z"/><path class="cls-1" d="M41.67,135.88v1.43H45.3v1.13H41.67v1.44h4.88V141H40.42v-6.25h6.13v1.13Z"/><path class="cls-1" d="M50.3,138.81l-2.63-4.06h1.44l1.22,1.88a6.14,6.14,0,0,1,.58,1.12h0a5.67,5.67,0,0,1,.57-1.12l1.21-1.88h1.45l-2.62,4.06V141H50.3Z"/><path class="cls-1" d="M56.73,135.88v1.43h3.63v1.13H56.73v1.44h4.88V141H55.49v-6.25h6.12v1.13Z"/><path class="cls-1" d="M67.73,139.09c0-.5-.55-.71-1.8-.71-2,0-2.82-.53-2.82-1.79s1-2,2.87-2,2.88.8,2.88,2H67.61c0-.53-.65-.88-1.63-.88s-1.62.29-1.62.84.5.66,1.69.66c2.06,0,2.93.56,2.93,1.84s-1,2-3,2c-1.79,0-3-.79-3-2h1.24c0,.52.7.87,1.75.87S67.73,139.68,67.73,139.09Z"/><path class="cls-1" d="M75,139.09c0-.5-.55-.71-1.8-.71-2,0-2.82-.53-2.82-1.79s1-2,2.87-2,2.88.8,2.88,2H74.86c0-.53-.65-.88-1.63-.88s-1.62.29-1.62.84.5.66,1.69.66c2.06,0,2.93.56,2.93,1.84s-1,2-3,2c-1.79,0-3-.79-3-2h1.24c0,.52.7.87,1.75.87S75,139.68,75,139.09Z"/><path class="cls-1" d="M80.92,134.75h4.13a1.77,1.77,0,0,1,1.87,1.88,1.46,1.46,0,0,1-.56,1.17,1.43,1.43,0,0,1,.81,1.33A1.77,1.77,0,0,1,85.3,141H80.92Zm4.13,2.56a.59.59,0,0,0,.62-.62v-.19a.59.59,0,0,0-.62-.62H82.17v1.43Zm-2.88,2.57H85.3a.59.59,0,0,0,.62-.63v-.19a.59.59,0,0,0-.62-.62H82.17Z"/><path class="cls-1" d="M93.55,138v-3.25H94.8V138a3,3,0,1,1-6,0v-3.25h1.25V138a1.76,1.76,0,1,0,3.5,0Z"/><path class="cls-1" d="M101.11,139.09c0-.5-.55-.71-1.8-.71-2,0-2.83-.53-2.83-1.79s1-2,2.88-2c1.72,0,2.87.8,2.87,2H101c0-.53-.65-.88-1.62-.88s-1.63.29-1.63.84.5.66,1.69.66c2.06,0,2.94.56,2.94,1.84s-1,2-3,2c-1.8,0-3-.79-3-2h1.25c0,.52.7.87,1.75.87S101.11,139.68,101.11,139.09Z"/><path class="cls-1" d="M108.73,138.44h1.34a3.25,3.25,0,1,1,0-1.13h-1.34a1.87,1.87,0,0,0-1.87-1.5,2.07,2.07,0,0,0,0,4.13A1.88,1.88,0,0,0,108.73,138.44Z"/><path class="cls-1" d="M110.63,141l2.57-6.25h1.87l2.56,6.25h-1.35l-.51-1.25h-3.3L112,141Zm4.68-2.37-1.13-2.75h-.12l-1.13,2.75Z"/><path class="cls-1" d="M128.26,137.88a3.25,3.25,0,1,1-3.25-3.25A3.15,3.15,0,0,1,128.26,137.88Zm-1.31,0a1.94,1.94,0,1,0-1.94,2.06A1.95,1.95,0,0,0,127,137.88Z"/><path class="cls-1" d="M134.57,137.31v1.13h-3.5V141h-1.25v-6.25h6v1.13h-4.75v1.43Z"/><path class="cls-1" d="M138.63,135.88v1.43h3.63v1.13h-3.63v1.44h4.88V141h-6.13v-6.25h6.13v1.13Z"/><path class="cls-1" d="M145.2,134.75h4.5a1.77,1.77,0,0,1,1.87,1.88,1.73,1.73,0,0,1-1.64,1.8,1.85,1.85,0,0,1,.23.3l1.41,2.27h-1.41l-1.59-2.56h-2.12V141H145.2Zm4.5,2.56a.59.59,0,0,0,.62-.62v-.19a.59.59,0,0,0-.62-.62h-3.25v1.43Z"/><path class="cls-1" d="M154.45,135.88v1.43h3.62v1.13h-3.62v1.44h4.87V141H153.2v-6.25h6.12v1.13Z"/><path class="cls-1" d="M165.51,138.44h1.34a3.25,3.25,0,1,1,0-1.13h-1.34a1.88,1.88,0,0,0-1.88-1.5,2.07,2.07,0,0,0,0,4.13A1.89,1.89,0,0,0,165.51,138.44Z"/><path class="cls-1" d="M169.66,135.88v1.43h3.62v1.13h-3.62v1.44h4.87V141h-6.12v-6.25h6.12v1.13Z"/><path class="cls-1" d="M176.22,134.75h4.5a1.77,1.77,0,0,1,1.88,1.88,1.73,1.73,0,0,1-1.64,1.8,1.75,1.75,0,0,1,.22.3L182.6,141h-1.42l-1.58-2.56h-2.13V141h-1.25Zm4.5,2.56a.59.59,0,0,0,.63-.62v-.19a.59.59,0,0,0-.63-.62h-3.25v1.43Z"/><path class="cls-1" d="M186.79,141l2.56-6.25h1.87l2.56,6.25h-1.35l-.51-1.25h-3.3l-.51,1.25Zm4.67-2.37-1.13-2.75h-.12l-1.13,2.75Z"/><path class="cls-1" d="M197.78,134.75H204v1.13h-2.5V141h-1.25v-5.12h-2.5Z"/><path class="cls-1" d="M211.16,137.88a3.25,3.25,0,1,1-3.25-3.25A3.15,3.15,0,0,1,211.16,137.88Zm-1.31,0a1.94,1.94,0,1,0-1.94,2.06A1.95,1.95,0,0,0,209.85,137.88Z"/><path class="cls-1" d="M219.09,137.88a3.09,3.09,0,0,1-3.24,3.12h-3.13v-6.25h3.13A3.08,3.08,0,0,1,219.09,137.88Zm-5.12,2h1.88a2,2,0,0,0,0-4H214Z"/><path class="cls-1" d="M226.84,137.88a3.25,3.25,0,1,1-3.24-3.25A3.14,3.14,0,0,1,226.84,137.88Zm-1.31,0a1.94,1.94,0,1,0-1.93,2.06A1.94,1.94,0,0,0,225.53,137.88Z"/><path class="cls-1" d="M232.85,139.09c0-.5-.55-.71-1.8-.71-2,0-2.83-.53-2.83-1.79s1-2,2.88-2c1.72,0,2.87.8,2.87,2h-1.25c0-.53-.65-.88-1.62-.88s-1.63.29-1.63.84.5.66,1.69.66c2.06,0,2.94.56,2.94,1.84s-1,2-3,2c-1.8,0-3-.79-3-2h1.25c0,.52.7.87,1.75.87S232.85,139.68,232.85,139.09Z"/><path class="cls-1" d="M61.34,152.88a3.25,3.25,0,1,1-3.25-3.25A3.15,3.15,0,0,1,61.34,152.88Zm-1.31,0a1.94,1.94,0,1,0-1.94,2.06A1.95,1.95,0,0,0,60,152.88Z"/><path class="cls-1" d="M69.12,152.38h.08l2-2.63h1.13V156H71v-4.37h0a2.51,2.51,0,0,1-.35.7l-.87,1.17H68.53l-.88-1.17a2.87,2.87,0,0,1-.35-.7h0V156H66v-6.25h1.12Z"/><path class="cls-1" d="M75.4,150.88v1.43H79v1.13H75.4v1.44h4.88V156H74.15v-6.25h6.13v1.13Z"/><path class="cls-1" d="M82,149.75h1.25v5.13H87V156H82Z"/><path class="cls-1" d="M89.65,152.31H93.4v-2.56h1.25V156H93.4v-2.56H89.65V156H88.4v-6.25h1.25Z"/><path class="cls-1" d="M102.71,152.88a3.25,3.25,0,1,1-3.24-3.25A3.14,3.14,0,0,1,102.71,152.88Zm-1.31,0a1.94,1.94,0,1,0-1.93,2.06A1.94,1.94,0,0,0,101.4,152.88Z"/><path class="cls-1" d="M104.28,149.75h4.5a1.77,1.77,0,0,1,1.87,1.88,1.73,1.73,0,0,1-1.64,1.8,1.85,1.85,0,0,1,.23.3l1.41,2.27h-1.41l-1.59-2.56h-2.12V156h-1.25Zm4.5,2.56a.59.59,0,0,0,.62-.62v-.19a.59.59,0,0,0-.62-.62h-3.25v1.43Z"/><path class="cls-1" d="M116.65,150.88v1.43h3.63v1.13h-3.63v1.44h4.88V156H115.4v-6.25h6.13v1.13Z"/><path class="cls-1" d="M126.3,152.38h.09l2-2.63h1.12V156h-1.25v-4.37h0a2.87,2.87,0,0,1-.35.7L127,153.5h-1.25l-.87-1.17a2.87,2.87,0,0,1-.35-.7h0V156h-1.25v-6.25h1.12Z"/><path class="cls-1" d="M134,149.75h6.25v1.13h-2.5V156h-1.25v-5.12H134Z"/><path class="cls-1" d="M143,150.88v1.43h3.62v1.13H143v1.44h4.87V156h-6.12v-6.25h6.12v1.13Z"/><path class="cls-1" d="M154,153.44h1.33a3.26,3.26,0,0,1-6.46-.56,3.26,3.26,0,0,1,6.46-.57H154a1.89,1.89,0,0,0-1.88-1.5,2.07,2.07,0,0,0,0,4.13A1.9,1.9,0,0,0,154,153.44Z"/><path class="cls-1" d="M158.18,151.69V156h-1.25v-6.25h1.12l3.88,4.31v-4.31h1.25V156h-1.13Z"/><path class="cls-1" d="M171.24,152.88a3.25,3.25,0,1,1-3.25-3.25A3.15,3.15,0,0,1,171.24,152.88Zm-1.31,0a1.94,1.94,0,1,0-1.94,2.06A1.95,1.95,0,0,0,169.93,152.88Z"/><path class="cls-1" d="M172.8,149.75h1.25v5.13h3.75V156h-5Z"/><path class="cls-1" d="M185.05,152.88a3.25,3.25,0,1,1-3.25-3.25A3.14,3.14,0,0,1,185.05,152.88Zm-1.31,0a1.94,1.94,0,1,0-1.94,2.06A1.94,1.94,0,0,0,183.74,152.88Z"/><path class="cls-1" d="M189.55,153.5v-1.12h3.21a2.67,2.67,0,0,1,0,.5,3.25,3.25,0,1,1-3.25-3.25,3.23,3.23,0,0,1,2.33.91l-.89.9a1.9,1.9,0,0,0-1.44-.63,2.07,2.07,0,0,0,0,4.13,1.91,1.91,0,0,0,1.87-1.44Z"/><path class="cls-1" d="M194.37,156v-6.25h1.25V156Z"/><path class="cls-1" d="M196.93,156l2.56-6.25h1.87l2.57,6.25h-1.35l-.52-1.25h-3.3l-.51,1.25Zm4.67-2.37-1.12-2.75h-.13l-1.12,2.75Z"/><path class="cls-1" d="M116.82,169.19c0-.49-.45-.75-1.31-.75h-.94v-1.13h.94c.74,0,1.12-.26,1.12-.75s-.41-.75-1.18-.75-1.19.27-1.19.75H113c0-1.25.88-1.93,2.5-1.93s2.5.68,2.5,1.93a1.44,1.44,0,0,1-.67,1.28,1.4,1.4,0,0,1,.85,1.35c0,1.25-.93,1.93-2.62,1.93s-2.62-.68-2.62-1.93h1.31c0,.49.45.75,1.31.75S116.82,169.68,116.82,169.19Z"/><path class="cls-1" d="M119.76,169.19a1.51,1.51,0,0,1,.94-1.35,1.47,1.47,0,0,1-.75-1.28c0-1.25.87-1.93,2.43-1.93s2.44.68,2.44,1.93a1.47,1.47,0,0,1-.75,1.28,1.49,1.49,0,0,1,.94,1.35c0,1.25-.94,1.93-2.63,1.93S119.76,170.44,119.76,169.19Zm2.62.75c.85,0,1.32-.26,1.32-.75s-.45-.75-1.32-.75-1.31.26-1.31.75S121.52,169.94,122.38,169.94Zm-1.12-3.38c0,.49.39.75,1.12.75s1.13-.26,1.13-.75-.39-.75-1.13-.75S121.26,166.08,121.26,166.56Z"/><path class="cls-1" d="M126.7,166.69c0-1.25.88-2.06,2.5-2.06s2.5.75,2.5,1.93c0,.9-.55,1.43-2.12,2-.93.36-1.57.8-1.57,1.28h3.81V171h-5.25v-.88c0-1,.91-2,2.54-2.59,1-.39,1.27-.6,1.27-1s-.41-.75-1.18-.75-1.19.39-1.19.88Z"/><path class="cls-1" d="M136.38,167.06c1.55,0,2.57.79,2.57,2s-1,2.06-2.69,2.06c-1.93,0-2.94-1.16-2.94-3.24s1.06-3.25,2.89-3.25c1.5,0,2.49.76,2.49,1.93h-1.32c0-.45-.47-.75-1.17-.75-1,0-1.48.57-1.56,1.72A3.44,3.44,0,0,1,136.38,167.06Zm1.25,2c0-.56-.51-.87-1.47-.87a2.57,2.57,0,0,0-1.45.5,1.4,1.4,0,0,0,1.56,1.25C137.1,169.94,137.63,169.59,137.63,169.06Z"/><path class="cls-1" d="M140.38,169.19a1.51,1.51,0,0,1,.94-1.35,1.49,1.49,0,0,1-.75-1.28c0-1.25.88-1.93,2.44-1.93s2.44.68,2.44,1.93a1.49,1.49,0,0,1-.75,1.28,1.48,1.48,0,0,1,.93,1.35c0,1.25-.93,1.93-2.62,1.93S140.38,170.44,140.38,169.19Zm2.63.75c.85,0,1.31-.26,1.31-.75s-.45-.75-1.31-.75-1.31.26-1.31.75S142.15,169.94,143,169.94Zm-1.13-3.38c0,.49.39.75,1.13.75s1.12-.26,1.12-.75-.38-.75-1.12-.75S141.88,166.08,141.88,166.56Z"/><path class="cls-1" d="M23.49,200.6V198h1v2.6a2.4,2.4,0,1,1-4.8,0V198h1v2.6a1.41,1.41,0,1,0,2.8,0Z"/><path class="cls-1" d="M29.54,201.47c0-.4-.44-.57-1.44-.57-1.58,0-2.26-.42-2.26-1.43s.8-1.57,2.3-1.57,2.3.64,2.3,1.6h-1c0-.42-.52-.7-1.3-.7s-1.3.23-1.3.67.4.53,1.35.53c1.65,0,2.35.45,2.35,1.47s-.84,1.63-2.4,1.63-2.4-.64-2.4-1.6h1c0,.42.56.7,1.4.7S29.54,201.94,29.54,201.47Z"/><path class="cls-1" d="M31.29,203l2.05-5h1.5l2,5H35.81l-.41-1H32.76l-.41,1ZM35,201.1l-.9-2.2H34l-.9,2.2Z"/><path class="cls-1" d="M38.94,199.55V203h-1v-5h.9l3.1,3.45V198h1v5H42Z"/><path class="cls-1" d="M49.54,200.5a2.48,2.48,0,0,1-2.6,2.5h-2.5v-5h2.5A2.47,2.47,0,0,1,49.54,200.5Zm-4.1,1.6h1.5a1.6,1.6,0,0,0,0-3.2h-1.5Z"/><path class="cls-1" d="M55.74,200.5a2.6,2.6,0,1,1-2.6-2.6A2.52,2.52,0,0,1,55.74,200.5Zm-1.05,0a1.55,1.55,0,1,0-1.55,1.65A1.55,1.55,0,0,0,54.69,200.5Z"/><path class="cls-1" d="M59.49,203v-5h1v5Z"/><path class="cls-1" d="M63,199.55V203H62v-5h.9l3.1,3.45V198h1v5h-.9Z"/><path class="cls-1" d="M68.14,198h5v.9h-2V203h-1v-4.1h-2Z"/><path class="cls-1" d="M75.29,198.9v1.15h2.9v.9h-2.9v1.15h3.9v.9h-4.9v-5h4.9v.9Z"/><path class="cls-1" d="M80.54,198h1v4.1h3v.9h-4Z"/><path class="cls-1" d="M85.69,203v-5h1v5Z"/><path class="cls-1" d="M90.54,201v-.9h2.57a2.6,2.6,0,0,1,0,.4,2.6,2.6,0,1,1-2.6-2.6,2.59,2.59,0,0,1,1.86.73l-.71.72a1.52,1.52,0,0,0-1.15-.5,1.65,1.65,0,0,0,0,3.3A1.51,1.51,0,0,0,92,201Z"/><path class="cls-1" d="M95.39,198.9v1.15h2.9v.9h-2.9v1.15h3.9v.9h-4.9v-5h4.9v.9Z"/><path class="cls-1" d="M101.64,199.55V203h-1v-5h.9l3.1,3.45V198h1v5h-.9Z"/><path class="cls-1" d="M111,201h1.07a2.6,2.6,0,1,1,0-.9H111a1.5,1.5,0,0,0-1.5-1.2,1.65,1.65,0,0,0,0,3.3A1.51,1.51,0,0,0,111,201Z"/><path class="cls-1" d="M113.31,203v-5h1v5Z"/><path class="cls-1" d="M115.36,203l2-5h1.5l2,5h-1.08l-.41-1h-2.64l-.41,1Zm3.74-1.9-.9-2.2h-.1l-.9,2.2Z"/><path class="cls-1" d="M124.06,203l2-5h1.5l2,5h-1.08l-.41-1h-2.64l-.41,1Zm3.74-1.9-.9-2.2h-.1l-.9,2.2Z"/><path class="cls-1" d="M130.71,198h3.6a1.42,1.42,0,0,1,1.5,1.5,1.38,1.38,0,0,1-1.31,1.44,1.66,1.66,0,0,1,.18.24l1.13,1.82h-1.13L133.41,201h-1.7V203h-1Zm3.6,2.05a.47.47,0,0,0,.5-.5v-.15a.47.47,0,0,0-.5-.5h-2.6v1.15Z"/><path class="cls-1" d="M136.66,198h5v.9h-2V203h-1v-4.1h-2Z"/><path class="cls-1" d="M142.81,203v-5h1v5Z"/><path class="cls-1" d="M149.11,200.05v.9h-2.8V203h-1v-5h4.8v.9h-3.8v1.15Z"/><path class="cls-1" d="M151.36,203v-5h1v5Z"/><path class="cls-1" d="M157.71,201h1.07a2.6,2.6,0,1,1,0-.9h-1.07a1.5,1.5,0,0,0-1.5-1.2,1.65,1.65,0,0,0,0,3.3A1.51,1.51,0,0,0,157.71,201Z"/><path class="cls-1" d="M160,203v-5h1v5Z"/><path class="cls-1" d="M162.08,203l2-5h1.5l2.05,5H166.6l-.41-1h-2.64l-.41,1Zm3.74-1.9-.9-2.2h-.1l-.9,2.2Z"/><path class="cls-1" d="M168.73,198h1v4.1h3v.9h-4Z"/><path class="cls-1" d="M177.38,203h-1v-5H180a1.42,1.42,0,0,1,1.5,1.5A1.4,1.4,0,0,1,180,201h-2.6Zm0-2.95H180a.47.47,0,0,0,.5-.5v-.15a.47.47,0,0,0-.5-.5h-2.6Z"/><path class="cls-1" d="M181.48,203l2.05-5H185l2.05,5H186l-.41-1H183l-.41,1Zm3.74-1.9-.9-2.2h-.1l-.9,2.2Z"/><path class="cls-1" d="M188.13,198h3.6a1.42,1.42,0,0,1,1.5,1.5,1.38,1.38,0,0,1-1.31,1.44,1.66,1.66,0,0,1,.18.24l1.13,1.82H192.1L190.83,201h-1.7V203h-1Zm3.6,2.05a.47.47,0,0,0,.5-.5v-.15a.47.47,0,0,0-.5-.5h-2.6v1.15Z"/><path class="cls-1" d="M194.08,203l2-5h1.5l2.05,5H198.6l-.41-1h-2.64l-.41,1Zm3.74-1.9-.9-2.2h-.1l-.9,2.2Z"/><path class="cls-1" d="M202.88,198h5v.9h-2V203h-1v-4.1h-2Z"/><path class="cls-1" d="M213.58,200.5a2.6,2.6,0,1,1-2.6-2.6A2.52,2.52,0,0,1,213.58,200.5Zm-1.05,0a1.55,1.55,0,1,0-1.55,1.65A1.55,1.55,0,0,0,212.53,200.5Z"/><path class="cls-1" d="M214.83,198h3.6a1.42,1.42,0,0,1,1.5,1.5,1.38,1.38,0,0,1-1.31,1.44,1.66,1.66,0,0,1,.18.24l1.13,1.82H218.8L217.53,201h-1.7V203h-1Zm3.6,2.05a.47.47,0,0,0,.5-.5v-.15a.47.47,0,0,0-.5-.5h-2.6v1.15Z"/><path class="cls-1" d="M222.23,199.55V203h-1v-5h.9l3.1,3.45V198h1v5h-.9Z"/><path class="cls-1" d="M227.28,203l2.05-5h1.5l2,5H231.8l-.41-1h-2.64l-.41,1Zm3.74-1.9-.9-2.2H230l-.9,2.2Z"/><path class="cls-1" d="M233.93,198h3.6a1.42,1.42,0,0,1,1.5,1.5,1.38,1.38,0,0,1-1.31,1.44,1.66,1.66,0,0,1,.18.24L239,203H237.9L236.63,201h-1.7V203h-1Zm3.6,2.05a.47.47,0,0,0,.5-.5v-.15a.47.47,0,0,0-.5-.5h-2.6v1.15Z"/><path class="cls-1" d="M33.4,215l2.05-5H37l2,5H37.92l-.41-1H34.87l-.41,1Zm3.74-1.9-.9-2.2h-.1l-.9,2.2Z"/><path class="cls-1" d="M42.2,210h5v.9h-2V215h-1v-4.1h-2Z"/><path class="cls-1" d="M52.9,212.5a2.6,2.6,0,1,1-2.6-2.6A2.52,2.52,0,0,1,52.9,212.5Zm-1,0a1.55,1.55,0,1,0-1.55,1.65A1.55,1.55,0,0,0,51.85,212.5Z"/><path class="cls-1" d="M56.62,212.1h.07l1.56-2.1h.9v5h-1v-3.5h0a2.14,2.14,0,0,1-.28.56l-.7.94h-1l-.7-.94a2.14,2.14,0,0,1-.28-.56h0V215h-1v-5h.9Z"/><path class="cls-1" d="M60.2,215l2-5h1.5l2,5H64.72l-.41-1H61.67l-.41,1Zm3.74-1.9-.9-2.2h-.1l-.9,2.2Z"/><path class="cls-1" d="M72,212.5a2.48,2.48,0,0,1-2.6,2.5h-2.5v-5h2.5A2.47,2.47,0,0,1,72,212.5Zm-4.1,1.6h1.5a1.6,1.6,0,0,0,0-3.2h-1.5Z"/><path class="cls-1" d="M72.4,215l2-5H76l2,5H76.92l-.41-1H73.87l-.41,1Zm3.74-1.9-.9-2.2h-.1l-.9,2.2Z"/><path class="cls-1" d="M86.65,212.5a2.48,2.48,0,0,1-2.6,2.5h-2.5v-5h2.5A2.47,2.47,0,0,1,86.65,212.5Zm-4.1,1.6h1.5a1.6,1.6,0,0,0,0-3.2h-1.5Z"/><path class="cls-1" d="M88.9,210.9v1.15h2.9v.9H88.9v1.15h3.9v.9H87.9v-5h4.9v.9Z"/><path class="cls-1" d="M99.12,212.1h.07l1.56-2.1h.9v5h-1v-3.5h0a2.14,2.14,0,0,1-.28.56l-.7.94h-1l-.7-.94a2.14,2.14,0,0,1-.28-.56h0V215h-1v-5h.9Z"/><path class="cls-1" d="M104.15,210.9v1.15h2.9v.9h-2.9v1.15h3.9v.9h-4.9v-5h4.9v.9Z"/><path class="cls-1" d="M114.5,212.5a2.48,2.48,0,0,1-2.6,2.5h-2.5v-5h2.5A2.47,2.47,0,0,1,114.5,212.5Zm-4.1,1.6h1.5a1.6,1.6,0,0,0,0-3.2h-1.5Z"/><path class="cls-1" d="M115.75,215v-5h1v5Z"/><path class="cls-1" d="M123.35,212.5a2.48,2.48,0,0,1-2.6,2.5h-2.5v-5h2.5A2.47,2.47,0,0,1,123.35,212.5Zm-4.1,1.6h1.5a1.6,1.6,0,0,0,0-3.2h-1.5Z"/><path class="cls-1" d="M123.8,215l2-5h1.5l2.05,5h-1.08l-.41-1h-2.64l-.41,1Zm3.74-1.9-.9-2.2h-.1l-.9,2.2Z"/><path class="cls-1" d="M133.9,213.47c0-.4-.44-.57-1.44-.57-1.58,0-2.26-.42-2.26-1.43s.8-1.57,2.3-1.57,2.3.64,2.3,1.6h-1c0-.42-.52-.7-1.3-.7s-1.3.23-1.3.67.4.53,1.35.53c1.65,0,2.35.45,2.35,1.47s-.84,1.63-2.4,1.63-2.4-.64-2.4-1.6h1c0,.42.56.7,1.4.7S133.9,213.94,133.9,213.47Z"/><path class="cls-1" d="M142.2,213.47c0-.4-.44-.57-1.44-.57-1.58,0-2.26-.42-2.26-1.43s.8-1.57,2.3-1.57,2.3.64,2.3,1.6h-1c0-.42-.52-.7-1.3-.7s-1.3.23-1.3.67.4.53,1.35.53c1.65,0,2.35.45,2.35,1.47s-.84,1.63-2.4,1.63-2.4-.64-2.4-1.6h1c0,.42.56.7,1.4.7S142.2,213.94,142.2,213.47Z"/><path class="cls-1" d="M145.45,210.9v1.15h2.9v.9h-2.9v1.15h3.9v.9h-4.9v-5h4.9v.9Z"/><path class="cls-1" d="M152.8,213v-.9h2.57a2.6,2.6,0,0,1,0,.4,2.6,2.6,0,1,1-2.6-2.6,2.59,2.59,0,0,1,1.86.73l-.71.72a1.52,1.52,0,0,0-1.15-.5,1.65,1.65,0,0,0,0,3.3,1.51,1.51,0,0,0,1.49-1.15Z"/><path class="cls-1" d="M160.45,212.6V210h1v2.6a2.4,2.4,0,1,1-4.8,0V210h1v2.6a1.41,1.41,0,1,0,2.8,0Z"/><path class="cls-1" d="M163,210h3.6a1.42,1.42,0,0,1,1.5,1.5,1.38,1.38,0,0,1-1.31,1.44,1.66,1.66,0,0,1,.18.24l1.13,1.82h-1.13L165.65,213H164V215h-1Zm3.6,2.05a.47.47,0,0,0,.5-.5v-.15a.47.47,0,0,0-.5-.5H164v1.15Z"/><path class="cls-1" d="M168.9,215l2-5h1.5l2.05,5h-1.08l-.41-1h-2.64l-.41,1Zm3.74-1.9-.9-2.2h-.1l-.9,2.2Z"/><path class="cls-1" d="M179.05,210.9v1.15H182v.9h-2.9v1.15H183v.9h-4.9v-5H183v.9Z"/><path class="cls-1" d="M187.8,215h-1v-5h3.6a1.42,1.42,0,0,1,1.5,1.5,1.4,1.4,0,0,1-1.5,1.45h-2.6Zm0-2.95h2.6a.47.47,0,0,0,.5-.5v-.15a.47.47,0,0,0-.5-.5h-2.6Z"/><path class="cls-1" d="M193.15,210h3.6a1.42,1.42,0,0,1,1.5,1.5,1.38,1.38,0,0,1-1.31,1.44,1.66,1.66,0,0,1,.18.24l1.13,1.82h-1.13L195.85,213h-1.7V215h-1Zm3.6,2.05a.47.47,0,0,0,.5-.5v-.15a.47.47,0,0,0-.5-.5h-2.6v1.15Z"/><path class="cls-1" d="M200.55,210.9v1.15h2.9v.9h-2.9v1.15h3.9v.9h-4.9v-5h4.9v.9Z"/><path class="cls-1" d="M209.4,213h1.07a2.6,2.6,0,1,1,0-.9H209.4a1.5,1.5,0,0,0-1.5-1.2,1.65,1.65,0,0,0,0,3.3A1.51,1.51,0,0,0,209.4,213Z"/><path class="cls-1" d="M211.72,215v-5h1v5Z"/><path class="cls-1" d="M217.77,213.47c0-.4-.44-.57-1.44-.57-1.58,0-2.26-.42-2.26-1.43s.8-1.57,2.3-1.57,2.3.64,2.3,1.6h-1c0-.42-.52-.7-1.3-.7s-1.3.23-1.3.67.4.53,1.35.53c1.65,0,2.35.45,2.35,1.47s-.84,1.63-2.4,1.63-2.4-.64-2.4-1.6h1c0,.42.56.7,1.4.7S217.77,213.94,217.77,213.47Z"/><path class="cls-1" d="M219.52,215l2-5h1.5l2.05,5H224l-.41-1H221l-.41,1Zm3.74-1.9-.9-2.2h-.1l-.9,2.2Z"/><path class="cls-1" d="M119.31,225.55c0-.39-.36-.6-1-.6h-.75v-.9h.75c.59,0,.9-.21.9-.6s-.33-.6-1-.6-.95.21-.95.6h-1.05c0-1,.71-1.55,2-1.55s2,.55,2,1.55a1.15,1.15,0,0,1-.53,1,1.13,1.13,0,0,1,.68,1.08c0,1-.75,1.55-2.1,1.55s-2.1-.55-2.1-1.55h1c0,.39.36.6,1.05.6S119.31,225.94,119.31,225.55Z"/><path class="cls-1" d="M121.66,225.55a1.21,1.21,0,0,1,.75-1.08,1.18,1.18,0,0,1-.6-1c0-1,.7-1.55,2-1.55s1.95.55,1.95,1.55a1.18,1.18,0,0,1-.6,1,1.19,1.19,0,0,1,.75,1.08c0,1-.75,1.55-2.1,1.55S121.66,226.55,121.66,225.55Zm2.1.6c.68,0,1-.21,1-.6s-.36-.6-1-.6-1.05.21-1.05.6S123.07,226.15,123.76,226.15Zm-.9-2.7c0,.39.31.6.9.6s.9-.21.9-.6-.31-.6-.9-.6S122.86,223.06,122.86,223.45Z"/><path class="cls-1" d="M130.31,225.55c0-.39-.36-.6-1.05-.6h-.75v-.9h.75c.59,0,.9-.21.9-.6s-.33-.6-.95-.6-1,.21-1,.6h-1c0-1,.71-1.55,2-1.55s2,.55,2,1.55a1.15,1.15,0,0,1-.53,1,1.13,1.13,0,0,1,.68,1.08c0,1-.75,1.55-2.1,1.55s-2.1-.55-2.1-1.55h1.05c0,.39.36.6,1,.6S130.31,225.94,130.31,225.55Z"/><path class="cls-1" d="M135,223.85c1.24,0,2,.63,2,1.6s-.83,1.65-2.15,1.65c-1.54,0-2.35-.93-2.35-2.6s.85-2.6,2.31-2.6c1.2,0,2,.61,2,1.55h-1.05c0-.36-.38-.6-.94-.6-.78,0-1.18.45-1.25,1.37A2.79,2.79,0,0,1,135,223.85Zm1,1.6c0-.45-.41-.7-1.18-.7a2.06,2.06,0,0,0-1.16.4,1.12,1.12,0,0,0,1.25,1C135.53,226.15,136,225.87,136,225.45Z"/><path class="cls-1" d="M138.21,223.55c0-1,.71-1.65,2-1.65s2,.6,2,1.55c0,.72-.44,1.14-1.69,1.63-.75.29-1.26.64-1.26,1h3.05v.9h-4.2v-.7c0-.82.73-1.57,2-2.08.79-.31,1-.48,1-.77s-.33-.6-.95-.6-1,.31-1,.7Z"/><path class="cls-1" d="M22.72,255a2,2,0,0,1-2.08,2h-2v-4h2A2,2,0,0,1,22.72,255Zm-3.28,1.28h1.2a1.28,1.28,0,0,0,0-2.56h-1.2Z"/><path class="cls-1" d="M24.52,253.72v.92h2.32v.72H24.52v.92h3.12V257H23.72v-4h3.92v.72Z"/><path class="cls-1" d="M31.56,255.78c0-.32-.35-.46-1.15-.46-1.26,0-1.81-.33-1.81-1.14s.64-1.26,1.84-1.26,1.84.51,1.84,1.28h-.8c0-.33-.41-.56-1-.56s-1,.19-1,.54.32.42,1.08.42c1.32,0,1.88.36,1.88,1.18s-.67,1.3-1.92,1.3-1.92-.51-1.92-1.28h.8c0,.34.45.56,1.12.56S31.56,256.15,31.56,255.78Z"/><path class="cls-1" d="M34.16,253.72v.92h2.32v.72H34.16v.92h3.12V257H33.36v-4h3.92v.72Z"/><path class="cls-1" d="M39.16,254.24V257h-.8v-4h.72l2.48,2.76V253h.8v4h-.72Z"/><path class="cls-1" d="M44.07,253l1.34,3.28h.08L46.83,253h.85L46,257h-1.2l-1.64-4Z"/><path class="cls-1" d="M52.16,255a2.08,2.08,0,1,1-2.08-2.08A2,2,0,0,1,52.16,255Zm-.84,0a1.24,1.24,0,1,0-1.24,1.32A1.24,1.24,0,0,0,51.32,255Z"/><path class="cls-1" d="M53.16,253H54v3.28h2.4V257h-3.2Z"/><path class="cls-1" d="M57.23,253l1.34,3.28h.08L60,253h.85l-1.64,4H58l-1.64-4Z"/><path class="cls-1" d="M61.68,257v-4h.8v4Z"/><path class="cls-1" d="M67.76,255a2,2,0,0,1-2.08,2h-2v-4h2A2,2,0,0,1,67.76,255Zm-3.28,1.28h1.2a1.28,1.28,0,0,0,0-2.56h-1.2Z"/><path class="cls-1" d="M72.72,255a2.08,2.08,0,1,1-2.08-2.08A2,2,0,0,1,72.72,255Zm-.84,0a1.24,1.24,0,1,0-1.24,1.32A1.24,1.24,0,0,0,71.88,255Z"/><path class="cls-1" d="M76.52,254.24V257h-.8v-4h.72l2.48,2.76V253h.8v4H79Z"/><path class="cls-1" d="M84.88,255a2.08,2.08,0,1,1-2.08-2.08A2,2,0,0,1,84.88,255ZM84,255a1.24,1.24,0,1,0-1.24,1.32A1.24,1.24,0,0,0,84,255Z"/><path class="cls-1" d="M89.86,254.68h.06L91.16,253h.72v4h-.8v-2.8h0a1.59,1.59,0,0,1-.23.45l-.56.75h-.8l-.56-.75a1.75,1.75,0,0,1-.22-.45h0V257h-.8v-4h.72Z"/><path class="cls-1" d="M92.72,257l1.64-4h1.2l1.64,4h-.86l-.33-.8H93.9l-.33.8Zm3-1.52L95,253.72h-.08l-.72,1.76Z"/><path class="cls-1" d="M98,257v-4h.8v4Z"/><path class="cls-1" d="M104,255a2.08,2.08,0,1,1-2.08-2.08A2,2,0,0,1,104,255Zm-.84,0a1.24,1.24,0,1,0-1.24,1.32A1.24,1.24,0,0,0,103.16,255Z"/><path class="cls-1" d="M105,253h2.88a1.13,1.13,0,0,1,1.2,1.2,1.1,1.1,0,0,1-1,1.15,1.73,1.73,0,0,1,.15.19l.9,1.46h-.9l-1-1.64H105.8V257H105Zm2.88,1.64a.38.38,0,0,0,.4-.4v-.12a.38.38,0,0,0-.4-.4H105.8v.92Z"/><path class="cls-1" d="M115.2,255.36h.86a2.08,2.08,0,1,1,0-.72h-.86a1.2,1.2,0,0,0-1.2-1,1.32,1.32,0,0,0,0,2.64A1.2,1.2,0,0,0,115.2,255.36Z"/><path class="cls-1" d="M117.86,253.72v.92h2.32v.72h-2.32v.92H121V257h-3.92v-4H121v.72Z"/><path class="cls-1" d="M122.86,254.24V257h-.8v-4h.72l2.48,2.76V253h.8v4h-.72Z"/><path class="cls-1" d="M127,253h4v.72h-1.6V257h-.8v-3.28H127Z"/><path class="cls-1" d="M131.9,253h2.88a1.13,1.13,0,0,1,1.2,1.2,1.1,1.1,0,0,1-1,1.15,1.5,1.5,0,0,1,.14.19L136,257h-.91l-1-1.64H132.7V257h-.8Zm2.88,1.64a.38.38,0,0,0,.4-.4v-.12a.38.38,0,0,0-.4-.4H132.7v.92Z"/><path class="cls-1" d="M140.86,255a2.08,2.08,0,1,1-2.08-2.08A2,2,0,0,1,140.86,255Zm-.84,0a1.24,1.24,0,1,0-1.24,1.32A1.24,1.24,0,0,0,140,255Z"/><path class="cls-1" d="M147.94,255a2,2,0,0,1-2.08,2h-2v-4h2A2,2,0,0,1,147.94,255Zm-3.28,1.28h1.2a1.28,1.28,0,0,0,0-2.56h-1.2Z"/><path class="cls-1" d="M149.74,253.72v.92h2.32v.72h-2.32v.92h3.12V257h-3.92v-4h3.92v.72Z"/><path class="cls-1" d="M155.66,253h4v.72h-1.6V257h-.8v-3.28h-1.6Z"/><path class="cls-1" d="M161.38,253.72v.92h2.32v.72h-2.32v.92h3.12V257h-3.92v-4h3.92v.72Z"/><path class="cls-1" d="M168.46,255.36h.85a2,2,0,0,1-2.05,1.72,2.08,2.08,0,1,1,2.05-2.44h-.85a1.21,1.21,0,0,0-1.2-1,1.32,1.32,0,0,0,0,2.64A1.21,1.21,0,0,0,168.46,255.36Z"/><path class="cls-1" d="M171.12,254.24V257h-.8v-4H171l2.47,2.76V253h.8v4h-.72Z"/><path class="cls-1" d="M179.47,255a2.08,2.08,0,1,1-2.08-2.08A2,2,0,0,1,179.47,255Zm-.84,0a1.24,1.24,0,1,0-1.24,1.32A1.24,1.24,0,0,0,178.63,255Z"/><path class="cls-1" d="M180.48,253h.8v3.28h2.39V257h-3.19Z"/><path class="cls-1" d="M188.31,255a2.08,2.08,0,1,1-2.08-2.08A2,2,0,0,1,188.31,255Zm-.84,0a1.24,1.24,0,1,0-1.24,1.32A1.24,1.24,0,0,0,187.47,255Z"/><path class="cls-1" d="M191.19,255.4v-.72h2.06a1.72,1.72,0,0,1,0,.32,2.08,2.08,0,1,1-2.08-2.08,2.07,2.07,0,0,1,1.49.59l-.57.57a1.2,1.2,0,0,0-.92-.4,1.32,1.32,0,0,0,0,2.64,1.22,1.22,0,0,0,1.2-.92Z"/><path class="cls-1" d="M194.28,257v-4h.8v4Z"/><path class="cls-1" d="M195.92,257l1.63-4h1.2l1.64,4h-.86l-.33-.8h-2.11l-.33.8Zm3-1.52-.72-1.76h-.08l-.72,1.76Z"/><path class="cls-1" d="M207.31,255a2,2,0,0,1-2.08,2h-2v-4h2A2,2,0,0,1,207.31,255ZM204,256.28h1.19a1.28,1.28,0,0,0,0-2.56H204Z"/><path class="cls-1" d="M212.27,255a2.08,2.08,0,1,1-2.08-2.08A2,2,0,0,1,212.27,255Zm-.84,0a1.24,1.24,0,1,0-1.24,1.32A1.24,1.24,0,0,0,211.43,255Z"/><path class="cls-1" d="M215.28,253h2.63a1.13,1.13,0,0,1,1.2,1.2,1,1,0,0,0,.16,1.6,1.13,1.13,0,0,1-1.2,1.2h-2.79Zm2.63,1.64a.38.38,0,0,0,.4-.4v-.12a.38.38,0,0,0-.4-.4h-1.83v.92Zm-1.83,1.64h2a.38.38,0,0,0,.4-.4v-.12a.38.38,0,0,0-.4-.4h-2Z"/><path class="cls-1" d="M220.32,253h2.87a1.13,1.13,0,0,1,1.2,1.2,1.1,1.1,0,0,1-1,1.15l.14.19.9,1.46h-.9l-1-1.64h-1.35V257h-.8Zm2.87,1.64a.38.38,0,0,0,.4-.4v-.12a.38.38,0,0,0-.4-.4h-2.07v.92Z"/><path class="cls-1" d="M225.08,257l1.63-4h1.2l1.64,4h-.86l-.33-.8h-2.11l-.33.8Zm3-1.52-.72-1.76h-.08l-.72,1.76Z"/><path class="cls-1" d="M233.15,255.78c0-.32-.35-.46-1.15-.46-1.26,0-1.8-.33-1.8-1.14s.63-1.26,1.83-1.26,1.84.51,1.84,1.28h-.8c0-.33-.41-.56-1-.56s-1,.19-1,.54.31.42,1.07.42c1.32,0,1.88.36,1.88,1.18s-.67,1.3-1.92,1.3-1.91-.51-1.91-1.28h.8c0,.34.44.56,1.11.56S233.15,256.15,233.15,255.78Z"/><path class="cls-1" d="M235,257v-4h.79v4Z"/><path class="cls-1" d="M237,253h.79v3.28h2.4V257H237Z"/><path class="cls-1" d="M14.61,262.6h4v.72H17v3.28h-.8v-3.28h-1.6Z"/><path class="cls-1" d="M20.33,263.32v.92h2.32V265H20.33v.92h3.12v.72H19.53v-4h3.92v.72Z"/><path class="cls-1" d="M26.5,264.28h.06l1.25-1.68h.72v4h-.8v-2.8h0a1.75,1.75,0,0,1-.22.45l-.56.75h-.8l-.56-.75a1.59,1.59,0,0,1-.23-.45h0v2.8h-.8v-4h.72Z"/><path class="cls-1" d="M34.81,265h.85a2,2,0,0,1-2,1.72,2.08,2.08,0,1,1,2-2.44h-.85a1.21,1.21,0,0,0-1.2-1,1.32,1.32,0,0,0,0,2.64A1.21,1.21,0,0,0,34.81,265Z"/><path class="cls-1" d="M40.62,264.6a2.08,2.08,0,1,1-2.08-2.08A2,2,0,0,1,40.62,264.6Zm-.84,0a1.24,1.24,0,1,0-1.24,1.32A1.24,1.24,0,0,0,39.78,264.6Z"/><path class="cls-1" d="M43.6,264.28h.06l1.24-1.68h.72v4h-.8v-2.8h0a1.59,1.59,0,0,1-.23.45L44,265h-.8l-.56-.75a1.75,1.75,0,0,1-.22-.45h0v2.8h-.8v-4h.72Z"/><path class="cls-1" d="M50.78,264.6a2.08,2.08,0,1,1-2.08-2.08A2,2,0,0,1,50.78,264.6Zm-.84,0a1.24,1.24,0,1,0-1.24,1.32A1.24,1.24,0,0,0,49.94,264.6Z"/><path class="cls-1" d="M54.58,266.6h-.8v-4h2.88a1.13,1.13,0,0,1,1.2,1.2,1.12,1.12,0,0,1-1.2,1.16H54.58Zm0-2.36h2.08a.38.38,0,0,0,.4-.4v-.12a.38.38,0,0,0-.4-.4H54.58Z"/><path class="cls-1" d="M58.86,266.6v-4h.8v4Z"/><path class="cls-1" d="M60.86,262.6h.8v3.28h2.4v.72h-3.2Z"/><path class="cls-1" d="M64.62,266.6l1.64-4h1.2l1.64,4h-.86l-.33-.8H65.8l-.33.8Zm3-1.52-.71-1.76h-.08l-.72,1.76Z"/><path class="cls-1" d="M69.94,262.6h2.88a1.13,1.13,0,0,1,1.2,1.2A1.1,1.1,0,0,1,73,265a1.73,1.73,0,0,1,.15.19l.9,1.46h-.9l-1-1.64H70.74v1.64h-.8Zm2.88,1.64a.38.38,0,0,0,.4-.4v-.12a.38.38,0,0,0-.4-.4H70.74v.92Z"/><path class="cls-1" d="M80.14,265H81a2.08,2.08,0,1,1,0-.72h-.86a1.2,1.2,0,0,0-1.2-1,1.32,1.32,0,0,0,0,2.64A1.2,1.2,0,0,0,80.14,265Z"/><path class="cls-1" d="M82,262.6h2.88a1.13,1.13,0,0,1,1.2,1.2A1.1,1.1,0,0,1,85,265a1.5,1.5,0,0,1,.14.19l.91,1.46h-.91l-1-1.64H82.8v1.64H82Zm2.88,1.64a.38.38,0,0,0,.4-.4v-.12a.38.38,0,0,0-.4-.4H82.8v.92Z"/><path class="cls-1" d="M87.92,263.32v.92h2.32V265H87.92v.92H91v.72H87.12v-4H91v.72Z"/><path class="cls-1" d="M95,265.38c0-.32-.35-.46-1.15-.46-1.27,0-1.81-.34-1.81-1.14s.64-1.26,1.84-1.26,1.84.51,1.84,1.28h-.8c0-.33-.42-.56-1-.56s-1,.19-1,.54.32.42,1.08.42c1.32,0,1.88.36,1.88,1.18s-.67,1.3-1.92,1.3-1.92-.51-1.92-1.28h.8c0,.34.45.56,1.12.56S95,265.75,95,265.38Z"/><path class="cls-1" d="M99.84,265h.85a2,2,0,0,1-2,1.72,2.08,2.08,0,1,1,2-2.44h-.85a1.21,1.21,0,0,0-1.2-1,1.32,1.32,0,0,0,0,2.64A1.21,1.21,0,0,0,99.84,265Z"/><path class="cls-1" d="M101.7,266.6v-4h.8v4Z"/><path class="cls-1" d="M105.67,264.28h.06L107,262.6h.72v4h-.8v-2.8h0a1.59,1.59,0,0,1-.23.45l-.56.75h-.8l-.55-.75a1.59,1.59,0,0,1-.23-.45h0v2.8h-.8v-4h.72Z"/><path class="cls-1" d="M109.7,263.32v.92H112V265H109.7v.92h3.11v.72H108.9v-4h3.91v.72Z"/><path class="cls-1" d="M114.7,263.84v2.76h-.8v-4h.72l2.47,2.76V262.6h.8v4h-.72Z"/><path class="cls-1" d="M118.82,262.6h4v.72h-1.6v3.28h-.79v-3.28h-1.6Z"/><path class="cls-1" d="M127.37,264.6a2.08,2.08,0,1,1-2.08-2.08A2,2,0,0,1,127.37,264.6Zm-.84,0a1.24,1.24,0,1,0-1.24,1.32A1.24,1.24,0,0,0,126.53,264.6Z"/><path class="cls-1" d="M131.18,263.32v.92h2.31V265h-2.31v.92h3.11v.72h-3.91v-4h3.91v.72Z"/><path class="cls-1" d="M137,266.6l1.64-4h1.19l1.64,4h-.86l-.33-.8h-2.11l-.33.8Zm3-1.52-.72-1.76h-.08l-.72,1.76Z"/><path class="cls-1" d="M143.14,266.6h-.8v-4h2.87a1.13,1.13,0,0,1,1.2,1.2,1.12,1.12,0,0,1-1.2,1.16h-2.07Zm0-2.36h2.07a.38.38,0,0,0,.4-.4v-.12a.38.38,0,0,0-.4-.4h-2.07Z"/><path class="cls-1" d="M147.42,262.6h2.87a1.13,1.13,0,0,1,1.2,1.2,1.1,1.1,0,0,1-1,1.15l.14.19.9,1.46h-.9l-1-1.64h-1.35v1.64h-.8Zm2.87,1.64a.38.38,0,0,0,.4-.4v-.12a.38.38,0,0,0-.4-.4h-2.07v.92Z"/><path class="cls-1" d="M152.54,266.6v-4h.8v4Z"/><path class="cls-1" d="M156.51,264.28h.06l1.24-1.68h.72v4h-.8v-2.8h0a1.59,1.59,0,0,1-.23.45l-.56.75h-.8l-.55-.75a1.59,1.59,0,0,1-.23-.45h0v2.8h-.8v-4h.72Z"/><path class="cls-1" d="M163.69,264.6a2.08,2.08,0,1,1-2.07-2.08A2,2,0,0,1,163.69,264.6Zm-.84,0a1.24,1.24,0,1,0-1.23,1.32A1.24,1.24,0,0,0,162.85,264.6Z"/><path class="cls-1" d="M164.7,262.6h2.87a1.13,1.13,0,0,1,1.2,1.2,1.1,1.1,0,0,1-1,1.15l.14.19.9,1.46h-.9l-1-1.64H165.5v1.64h-.8Zm2.87,1.64a.38.38,0,0,0,.4-.4v-.12a.38.38,0,0,0-.4-.4H165.5v.92Z"/><path class="cls-1" d="M169.46,266.6l1.63-4h1.2l1.64,4h-.86l-.33-.8h-2.11l-.33.8Zm3-1.52-.72-1.76h-.08l-.72,1.76Z"/><path class="cls-1" d="M176.75,264.28h.06l1.24-1.68h.72v4H178v-2.8h0a1.59,1.59,0,0,1-.23.45l-.56.75h-.79l-.56-.75a1.59,1.59,0,0,1-.23-.45h0v2.8h-.8v-4h.72Z"/><path class="cls-1" d="M180.78,263.32v.92h2.31V265h-2.31v.92h3.11v.72H180v-4h3.91v.72Z"/><path class="cls-1" d="M185.78,263.84v2.76H185v-4h.72l2.47,2.76V262.6h.8v4h-.72Z"/><path class="cls-1" d="M189.9,262.6h4v.72h-1.6v3.28h-.79v-3.28h-1.6Z"/><path class="cls-1" d="M198.45,264.6a2.08,2.08,0,1,1-2.07-2.08A2,2,0,0,1,198.45,264.6Zm-.84,0a1.24,1.24,0,1,0-1.23,1.32A1.24,1.24,0,0,0,197.61,264.6Z"/><path class="cls-1" d="M204.53,265h.86a2.08,2.08,0,1,1,0-.72h-.86a1.2,1.2,0,0,0-1.2-1,1.32,1.32,0,0,0,0,2.64A1.2,1.2,0,0,0,204.53,265Z"/><path class="cls-1" d="M210.35,264.6a2.08,2.08,0,1,1-2.08-2.08A2,2,0,0,1,210.35,264.6Zm-.84,0a1.24,1.24,0,1,0-1.24,1.32A1.24,1.24,0,0,0,209.51,264.6Z"/><path class="cls-1" d="M212.15,263.84v2.76h-.8v-4h.72l2.48,2.76V262.6h.8v4h-.72Z"/><path class="cls-1" d="M219.39,265.38c0-.32-.35-.46-1.15-.46-1.26,0-1.81-.34-1.81-1.14s.64-1.26,1.84-1.26,1.84.51,1.84,1.28h-.8c0-.33-.42-.56-1-.56s-1,.19-1,.54.32.42,1.08.42c1.32,0,1.88.36,1.88,1.18s-.67,1.3-1.92,1.3-1.92-.51-1.92-1.28h.8c0,.34.45.56,1.12.56S219.39,265.75,219.39,265.38Z"/><path class="cls-1" d="M220.75,262.6h4v.72h-1.6v3.28h-.8v-3.28h-1.6Z"/><path class="cls-1" d="M224.67,266.6l1.64-4h1.2l1.64,4h-.86l-.33-.8h-2.11l-.33.8Zm3-1.52-.72-1.76h-.08l-.72,1.76Z"/><path class="cls-1" d="M230.79,263.84v2.76H230v-4h.72l2.48,2.76V262.6h.8v4h-.72Z"/><path class="cls-1" d="M234.91,262.6h4v.72h-1.6v3.28h-.8v-3.28h-1.6Z"/><path class="cls-1" d="M240.63,263.32v.92H243V265h-2.32v.92h3.12v.72h-3.92v-4h3.92v.72Z"/><path class="cls-1" d="M118.78,275a1,1,0,0,1,.6-.86,1,1,0,0,1-.48-.82c0-.8.56-1.24,1.56-1.24s1.56.44,1.56,1.24a1,1,0,0,1-.48.82,1,1,0,0,1,.6.86c0,.8-.6,1.24-1.68,1.24S118.78,275.84,118.78,275Zm1.68.48c.54,0,.84-.17.84-.48s-.29-.48-.84-.48-.84.17-.84.48S119.91,275.52,120.46,275.52Zm-.72-2.16c0,.31.25.48.72.48s.72-.17.72-.48-.25-.48-.72-.48S119.74,273.05,119.74,273.36Z"/><path class="cls-1" d="M125.7,275c0-.31-.29-.48-.84-.48h-.6v-.72h.6c.47,0,.72-.17.72-.48s-.27-.48-.76-.48-.76.17-.76.48h-.84c0-.8.57-1.24,1.6-1.24s1.6.44,1.6,1.24a.94.94,0,0,1-.43.82.9.9,0,0,1,.55.86c0,.8-.6,1.24-1.68,1.24s-1.68-.44-1.68-1.24H124c0,.31.29.48.84.48S125.7,275.35,125.7,275Z"/><path class="cls-1" d="M127.58,275a1,1,0,0,1,.6-.86,1,1,0,0,1-.48-.82c0-.8.56-1.24,1.56-1.24s1.56.44,1.56,1.24a1,1,0,0,1-.48.82,1,1,0,0,1,.6.86c0,.8-.6,1.24-1.68,1.24S127.58,275.84,127.58,275Zm1.68.48c.54,0,.84-.17.84-.48s-.29-.48-.84-.48-.84.17-.84.48S128.71,275.52,129.26,275.52Zm-.72-2.16c0,.31.25.48.72.48s.72-.17.72-.48-.25-.48-.72-.48S128.54,273.05,128.54,273.36Z"/><path class="cls-1" d="M133.82,273.68c1,0,1.64.51,1.64,1.28s-.67,1.32-1.72,1.32c-1.23,0-1.88-.74-1.88-2.08s.68-2.08,1.85-2.08c1,0,1.59.49,1.59,1.24h-.84c0-.29-.31-.48-.75-.48-.63,0-1,.36-1,1.1A2.21,2.21,0,0,1,133.82,273.68Zm.8,1.28c0-.36-.33-.56-1-.56a1.64,1.64,0,0,0-.92.32.9.9,0,0,0,1,.8C134.27,275.52,134.62,275.3,134.62,275Z"/><path class="cls-1" d="M138.9,275c0-.31-.29-.48-.84-.48h-.6v-.72h.6c.47,0,.72-.17.72-.48s-.27-.48-.76-.48-.76.17-.76.48h-.84c0-.8.57-1.24,1.6-1.24s1.6.44,1.6,1.24a.94.94,0,0,1-.43.82.9.9,0,0,1,.55.86c0,.8-.6,1.24-1.68,1.24s-1.68-.44-1.68-1.24h.84c0,.31.29.48.84.48S138.9,275.35,138.9,275Z"/><path class="cls-1" d="M40.05,301.85H43.2v.57H41.94V305h-.63v-2.58H40.05Z"/><path class="cls-1" d="M46.32,303.49v-1.64H47v1.64a1.51,1.51,0,1,1-3,0v-1.64h.63v1.64a.88.88,0,1,0,1.76,0Z"/><path class="cls-1" d="M51.11,303.42A1.56,1.56,0,0,1,49.47,305H47.9v-3.15h1.57A1.55,1.55,0,0,1,51.11,303.42Zm-2.58,1h.94a1,1,0,0,0,0-2h-.94Z"/><path class="cls-1" d="M55,303.42a1.64,1.64,0,1,1-1.64-1.63A1.59,1.59,0,0,1,55,303.42Zm-.67,0a1,1,0,1,0-1,1A1,1,0,0,0,54.35,303.42Z"/><path class="cls-1" d="M57.38,305v-3.15H58V305Z"/><path class="cls-1" d="M61.19,304c0-.26-.28-.36-.91-.36-1,0-1.42-.27-1.42-.9s.5-1,1.45-1,1.45.4,1.45,1h-.63c0-.26-.33-.44-.82-.44s-.82.15-.82.43.25.33.85.33c1,0,1.48.28,1.48.93s-.53,1-1.51,1-1.52-.4-1.52-1h.63c0,.27.36.45.89.45S61.19,304.33,61.19,304Z"/><path class="cls-1" d="M64.84,304c0-.26-.27-.36-.9-.36-1,0-1.43-.27-1.43-.9s.51-1,1.45-1,1.45.4,1.45,1h-.63c0-.26-.33-.44-.82-.44s-.82.15-.82.43.25.33.85.33c1,0,1.48.28,1.48.93s-.53,1-1.51,1-1.51-.4-1.51-1h.63c0,.27.35.45.88.45S64.84,304.33,64.84,304Z"/><path class="cls-1" d="M69.38,303.42a1.64,1.64,0,1,1-1.64-1.63A1.59,1.59,0,0,1,69.38,303.42Zm-.66,0a1,1,0,1,0-1,1A1,1,0,0,0,68.72,303.42Z"/><path class="cls-1" d="M72.14,301.85l1.06,2.58h.06l1.06-2.58H75L73.69,305h-.94l-1.29-3.15Z"/><path class="cls-1" d="M78.51,303.42a1.64,1.64,0,1,1-1.63-1.63A1.58,1.58,0,0,1,78.51,303.42Zm-.66,0a1,1,0,1,0-1,1A1,1,0,0,0,77.85,303.42Z"/><path class="cls-1" d="M79.3,301.85h.63v2.58h1.89V305H79.3Z"/><path class="cls-1" d="M81.82,301.85H85v.57H83.71V305h-.63v-2.58H81.82Z"/><path class="cls-1" d="M84.91,305l1.29-3.15h1L88.44,305h-.68l-.26-.63H85.83l-.25.63Zm2.35-1.2-.56-1.38h-.07l-.56,1.38Z"/><path class="cls-1" d="M92.31,303.42A1.56,1.56,0,0,1,90.67,305H89.1v-3.15h1.57A1.55,1.55,0,0,1,92.31,303.42Zm-2.58,1h.94a1,1,0,0,0,0-2h-.94Z"/><path class="cls-1" d="M96.22,303.42a1.64,1.64,0,1,1-1.64-1.63A1.59,1.59,0,0,1,96.22,303.42Zm-.66,0a1,1,0,1,0-1,1A1,1,0,0,0,95.56,303.42Z"/><path class="cls-1" d="M99.21,305h-.63v-3.15h2.27a.89.89,0,0,1,.94.94.88.88,0,0,1-.94.92H99.21Zm0-1.86h1.64a.29.29,0,0,0,.31-.31v-.1a.29.29,0,0,0-.31-.31H99.21Z"/><path class="cls-1" d="M101.79,305l1.29-3.15h1l1.29,3.15h-.68l-.26-.63h-1.66l-.26.63Zm2.36-1.2-.57-1.38h-.06L103,303.8Z"/><path class="cls-1" d="M106,301.85h2.27a.89.89,0,0,1,1,.94.87.87,0,0,1-.83.91,1.12,1.12,0,0,1,.11.15l.72,1.15h-.72l-.8-1.29h-1.07V305H106Zm2.27,1.29a.3.3,0,0,0,.32-.31v-.1a.3.3,0,0,0-.32-.31h-1.64v.72Z"/><path class="cls-1" d="M109.73,305l1.29-3.15h1l1.29,3.15h-.68l-.26-.63h-1.66l-.26.63Zm2.36-1.2-.57-1.38h-.06l-.57,1.38Z"/><path class="cls-1" d="M118.61,303.42a1.64,1.64,0,1,1-1.63-1.63A1.58,1.58,0,0,1,118.61,303.42Zm-.66,0a1,1,0,1,0-1,1A1,1,0,0,0,118,303.42Z"/><path class="cls-1" d="M121.79,303.14v.57H120V305h-.63v-3.15h3v.57H120v.72Z"/><path class="cls-1" d="M123.84,302.42v.72h1.83v.57h-1.83v.72h2.46V305h-3.09v-3.15h3.09v.57Z"/><path class="cls-1" d="M127.15,301.85h2.27a.89.89,0,0,1,.94.94.86.86,0,0,1-.82.91,1.12,1.12,0,0,1,.11.15l.71,1.15h-.71l-.8-1.29h-1.07V305h-.63Zm2.27,1.29a.29.29,0,0,0,.31-.31v-.1a.29.29,0,0,0-.31-.31h-1.64v.72Z"/><path class="cls-1" d="M131.81,302.42v.72h1.83v.57h-1.83v.72h2.46V305h-3.09v-3.15h3.09v.57Z"/><path class="cls-1" d="M137.39,303.71h.67a1.57,1.57,0,0,1-1.62,1.35,1.64,1.64,0,1,1,0-3.27,1.57,1.57,0,0,1,1.62,1.35h-.67a1,1,0,0,0-.95-.76,1,1,0,0,0,0,2.08A1,1,0,0,0,137.39,303.71Z"/><path class="cls-1" d="M139.48,302.42v.72h1.83v.57h-1.83v.72h2.46V305h-3.09v-3.15h3.09v.57Z"/><path class="cls-1" d="M142.79,301.85h2.26a.89.89,0,0,1,.95.94.87.87,0,0,1-.83.91,1.31,1.31,0,0,1,.12.15L146,305h-.71l-.8-1.29h-1.07V305h-.63Zm2.26,1.29a.3.3,0,0,0,.32-.31v-.1a.3.3,0,0,0-.32-.31h-1.63v.72Z"/><path class="cls-1" d="M148.11,305l1.29-3.15h.95l1.29,3.15H151l-.26-.63H149l-.26.63Zm2.36-1.2-.57-1.38h-.06l-.57,1.38Z"/><path class="cls-1" d="M155.43,303.17h0l1-1.32H157V305h-.64v-2.21h0a1.32,1.32,0,0,1-.17.36l-.45.59h-.63l-.44-.59a1.32,1.32,0,0,1-.17-.36h0V305h-.63v-3.15h.57Z"/><path class="cls-1" d="M158.6,302.42v.72h1.83v.57H158.6v.72h2.46V305H158v-3.15h3.09v.57Z"/><path class="cls-1" d="M161.91,301.85h.63v2.58h1.89V305h-2.52Z"/><path class="cls-1" d="M165.78,303.14h1.89v-1.29h.63V305h-.63v-1.29h-1.89V305h-.63v-3.15h.63Z"/><path class="cls-1" d="M172.37,303.42a1.64,1.64,0,1,1-1.64-1.63A1.59,1.59,0,0,1,172.37,303.42Zm-.67,0a1,1,0,1,0-1,1A1,1,0,0,0,171.7,303.42Z"/><path class="cls-1" d="M173.15,301.85h2.27a.89.89,0,0,1,1,.94.87.87,0,0,1-.83.91,1.12,1.12,0,0,1,.11.15l.72,1.15h-.72l-.8-1.29h-1.07V305h-.63Zm2.27,1.29a.3.3,0,0,0,.32-.31v-.1a.3.3,0,0,0-.32-.31h-1.64v.72Z"/><path class="cls-1" d="M179.39,302.42v.72h1.83v.57h-1.83v.72h2.46V305h-3.09v-3.15h3.09v.57Z"/><path class="cls-1" d="M186,305h-.79l-1-1.18-1,1.18h-.79l1.4-1.63-1.3-1.52h.78l.93,1.07.9-1.07h.8l-1.31,1.52Z"/><path class="cls-1" d="M187.3,305h-.63v-3.15h2.27a.89.89,0,0,1,.95.94.88.88,0,0,1-.95.92H187.3Zm0-1.86h1.64a.3.3,0,0,0,.32-.31v-.1a.3.3,0,0,0-.32-.31H187.3Z"/><path class="cls-1" d="M191.3,302.42v.72h1.83v.57H191.3v.72h2.46V305h-3.09v-3.15h3.09v.57Z"/><path class="cls-1" d="M194.61,301.85h2.27a.89.89,0,0,1,.94.94.86.86,0,0,1-.82.91,1.12,1.12,0,0,1,.11.15l.71,1.15h-.71l-.8-1.29h-1.07V305h-.63Zm2.27,1.29a.29.29,0,0,0,.31-.31v-.1a.29.29,0,0,0-.31-.31h-1.64v.72Z"/><path class="cls-1" d="M198.64,305v-3.15h.63V305Z"/><path class="cls-1" d="M200.85,302.42v.72h1.82v.57h-1.82v.72h2.45V305h-3.08v-3.15h3.08v.57Z"/><path class="cls-1" d="M204.78,302.83V305h-.63v-3.15h.57l1.95,2.17v-2.17h.63V305h-.56Z"/><path class="cls-1" d="M210.68,303.71h.67a1.64,1.64,0,1,1,0-.57h-.67a1,1,0,0,0-1-.76,1,1,0,0,0,0,2.08A1,1,0,0,0,210.68,303.71Z"/><path class="cls-1" d="M212.14,305v-3.15h.63V305Z"/><path class="cls-1" d="M213.43,305l1.29-3.15h.95L217,305h-.68l-.26-.63h-1.67l-.25.63Zm2.35-1.2-.56-1.38h-.07l-.56,1.38Z"/><path class="cls-1" d="M80,312.56h-.63v-3.15h2.27a.89.89,0,0,1,.95.94.88.88,0,0,1-.95.92H80Zm0-1.86h1.64a.3.3,0,0,0,.32-.31v-.1a.3.3,0,0,0-.32-.31H80Z"/><path class="cls-1" d="M86.47,311a1.64,1.64,0,1,1-1.64-1.63A1.59,1.59,0,0,1,86.47,311Zm-.66,0a1,1,0,1,0-1,1A1,1,0,0,0,85.81,311Z"/><path class="cls-1" d="M89.5,311.6c0-.26-.28-.36-.91-.36-1,0-1.43-.27-1.43-.9s.51-1,1.45-1,1.45.4,1.45,1h-.63c0-.26-.33-.44-.82-.44s-.82.15-.82.43.26.33.85.33c1,0,1.48.28,1.48.93s-.52,1-1.51,1-1.51-.4-1.51-1h.63c0,.26.35.44.88.44S89.5,311.89,89.5,311.6Z"/><path class="cls-1" d="M93.15,311.6c0-.26-.28-.36-.91-.36-1,0-1.42-.27-1.42-.9s.5-1,1.45-1,1.45.4,1.45,1h-.63c0-.26-.33-.44-.82-.44s-.82.15-.82.43.25.33.85.33c1,0,1.48.28,1.48.93s-.53,1-1.51,1-1.52-.4-1.52-1h.63c0,.26.36.44.89.44S93.15,311.89,93.15,311.6Z"/><path class="cls-1" d="M94.57,312.56v-3.15h.63v3.15Z"/><path class="cls-1" d="M96.54,309.41,97.6,312h.06l1.06-2.58h.67l-1.3,3.15h-.94l-1.29-3.15Z"/><path class="cls-1" d="M100.68,310v.72h1.82v.57h-1.82V312h2.45v.57h-3.08v-3.15h3.08V310Z"/><path class="cls-1" d="M104,309.41h.63V312h1.89v.57H104Z"/><path class="cls-1" d="M108.52,312.56l1.29-3.15h1l1.29,3.15h-.68l-.26-.63h-1.66l-.26.63Zm2.36-1.2-.57-1.38h-.06l-.57,1.38Z"/><path class="cls-1" d="M114.68,309.41l1.06,2.58h.06l1.06-2.58h.67l-1.29,3.15h-.95L114,309.41Z"/><path class="cls-1" d="M121.06,311a1.64,1.64,0,1,1-1.64-1.63A1.59,1.59,0,0,1,121.06,311Zm-.66,0a1,1,0,1,0-1,1A1,1,0,0,0,120.4,311Z"/><path class="cls-1" d="M124.27,311.27H125a1.64,1.64,0,1,1,0-.57h-.68a.94.94,0,0,0-.94-.75,1,1,0,0,0,0,2.07A.94.94,0,0,0,124.27,311.27Z"/><path class="cls-1" d="M126.36,310v.72h1.83v.57h-1.83V312h2.46v.57h-3.09v-3.15h3.09V310Z"/><path class="cls-1" d="M133.67,311.27h.67a1.56,1.56,0,0,1-1.61,1.35,1.64,1.64,0,1,1,0-3.27,1.56,1.56,0,0,1,1.61,1.35h-.67a.94.94,0,0,0-.94-.75,1,1,0,0,0,0,2.07A.94.94,0,0,0,133.67,311.27Z"/><path class="cls-1" d="M135.13,309.41h.63V312h1.89v.57h-2.52Z"/><path class="cls-1" d="M138.38,312.56v-3.15H139v3.15Z"/><path class="cls-1" d="M140.58,310v.72h1.83v.57h-1.83V312H143v.57H140v-3.15H143V310Z"/><path class="cls-1" d="M144.52,310.39v2.17h-.63v-3.15h.57l1.95,2.17v-2.17H147v3.15h-.57Z"/><path class="cls-1" d="M147.76,309.41h3.15V310h-1.26v2.58H149V310h-1.26Z"/><path class="cls-1" d="M152.27,310v.72h1.82v.57h-1.82V312h2.46v.57h-3.09v-3.15h3.09V310Z"/><path class="cls-1" d="M157.78,310v.72h1.83v.57h-1.83V312h2.46v.57h-3.09v-3.15h3.09V310Z"/><path class="cls-1" d="M162.38,312.56l1.29-3.15h1l1.29,3.15h-.68l-.26-.63H163.3l-.25.63Zm2.36-1.2-.57-1.38h-.06l-.57,1.38Z"/><path class="cls-1" d="M168.12,310.73h0l1-1.32h.57v3.15h-.63v-2.21h0a1.53,1.53,0,0,1-.18.36l-.44.59h-.63l-.44-.59a1.19,1.19,0,0,1-.18-.36h0v2.21h-.63v-3.15h.57Z"/><path class="cls-1" d="M170.66,312.56v-3.15h.63v3.15Z"/><path class="cls-1" d="M173.72,311.3v-.57h1.62a2.11,2.11,0,0,1,0,.25,1.64,1.64,0,1,1-1.64-1.63,1.63,1.63,0,0,1,1.17.46l-.45.45a.91.91,0,0,0-.72-.31,1,1,0,0,0,0,2.07,1,1,0,0,0,.94-.72Z"/><path class="cls-1" d="M179.26,311a1.64,1.64,0,1,1-1.64-1.63A1.59,1.59,0,0,1,179.26,311Zm-.66,0a1,1,0,1,0-1,1A1,1,0,0,0,178.6,311Z"/><path class="cls-1" d="M123,319.21c0-.25-.22-.38-.66-.38h-.47v-.57h.47c.37,0,.57-.13.57-.38s-.21-.38-.6-.38-.6.14-.6.38H121c0-.63.45-1,1.26-1s1.26.34,1.26,1a.73.73,0,0,1-.33.65.7.7,0,0,1,.42.68c0,.63-.47,1-1.32,1s-1.32-.34-1.32-1h.66c0,.24.23.37.66.37S123,319.45,123,319.21Z"/><path class="cls-1" d="M124.47,319.21a.74.74,0,0,0,.1-1.33c0-.63.44-1,1.23-1s1.22.34,1.22,1a.74.74,0,0,0,.1,1.33c0,.63-.47,1-1.32,1S124.47,319.84,124.47,319.21Zm1.33.37c.42,0,.66-.13.66-.37s-.23-.38-.66-.38-.67.13-.67.38S125.36,319.58,125.8,319.58Zm-.57-1.7c0,.25.19.38.57.38s.56-.13.56-.38-.19-.38-.56-.38S125.23,317.64,125.23,317.88Z"/><path class="cls-1" d="M128,318c0-.63.45-1,1.26-1s1.26.37,1.26,1-.28.72-1.07,1c-.47.18-.79.4-.79.64h1.92v.57h-2.64v-.44c0-.52.46-1,1.27-1.31.5-.2.65-.3.65-.49s-.21-.38-.6-.38-.6.2-.6.45Z"/><path class="cls-1" d="M132.85,318.13c.78,0,1.29.4,1.29,1s-.52,1-1.35,1-1.48-.58-1.48-1.64.53-1.63,1.45-1.63c.76,0,1.26.38,1.26,1h-.66c0-.22-.24-.38-.6-.38s-.74.29-.78.87A1.69,1.69,0,0,1,132.85,318.13Zm.63,1c0-.28-.26-.44-.74-.44a1.32,1.32,0,0,0-.73.25.7.7,0,0,0,.78.63C133.21,319.58,133.48,319.41,133.48,319.14Z"/><path class="cls-1" d="M134.87,319.21a.75.75,0,0,1,.47-.68.76.76,0,0,1-.38-.65c0-.63.44-1,1.23-1s1.23.34,1.23,1a.76.76,0,0,1-.38.65.75.75,0,0,1,.47.68c0,.63-.47,1-1.32,1S134.87,319.84,134.87,319.21Zm1.32.37c.43,0,.66-.13.66-.37s-.22-.38-.66-.38-.66.13-.66.38S135.76,319.58,136.19,319.58Zm-.57-1.7c0,.25.2.38.57.38s.57-.13.57-.38-.2-.38-.57-.38S135.62,317.64,135.62,317.88Z"/><path class="cls-1" d="M51.52,343v.57H53V344H51.52v.58h1.95V345H51v-2.5h2.45V343Z"/><path class="cls-1" d="M55.92,344.23c0-.2-.22-.28-.72-.28-.79,0-1.13-.21-1.13-.72s.4-.78,1.15-.78,1.15.32,1.15.8h-.5c0-.21-.26-.35-.65-.35s-.65.11-.65.33.2.27.67.27c.83,0,1.18.22,1.18.73s-.42.82-1.2.82-1.2-.32-1.2-.8h.5c0,.21.28.35.7.35S55.92,344.47,55.92,344.23Z"/><path class="cls-1" d="M57.54,345H57v-2.5h1.8a.72.72,0,0,1,.76.75.7.7,0,0,1-.76.72h-1.3Zm0-1.48h1.3a.24.24,0,0,0,.25-.25v-.07a.24.24,0,0,0-.25-.25h-1.3Z"/><path class="cls-1" d="M60.72,343v.57h1.45V344H60.72v.58h2V345H60.22v-2.5h2.45V343Z"/><path class="cls-1" d="M63.34,342.5h1.8a.72.72,0,0,1,.76.75.7.7,0,0,1-.66.72.94.94,0,0,1,.09.12l.57.91h-.57l-.64-1h-.85v1h-.5Zm1.8,1a.24.24,0,0,0,.25-.25v-.07a.24.24,0,0,0-.25-.25h-1.3v.57Z"/><path class="cls-1" d="M66.32,345l1-2.5h.75l1,2.5h-.54l-.21-.5H67.05l-.2.5Zm1.87-.95-.45-1.1h0l-.45,1.1Z"/><path class="cls-1" d="M70.88,343.55h0l.78-1.05h.46V345h-.5v-1.75h0a1.07,1.07,0,0,1-.14.28l-.35.47h-.5l-.35-.47a1.07,1.07,0,0,1-.14-.28h0V345h-.5v-2.5h.45Z"/><path class="cls-1" d="M75.37,343.75a1.3,1.3,0,1,1-1.3-1.3A1.26,1.26,0,0,1,75.37,343.75Zm-.53,0a.78.78,0,1,0-.77.82A.77.77,0,0,0,74.84,343.75Z"/><path class="cls-1" d="M77.77,344.23c0-.2-.22-.28-.72-.28-.79,0-1.13-.21-1.13-.72s.4-.78,1.15-.78,1.15.32,1.15.8h-.5c0-.21-.26-.35-.65-.35s-.65.11-.65.33.2.27.67.27c.83,0,1.18.22,1.18.73s-.42.82-1.2.82-1.2-.32-1.2-.8h.5c0,.21.28.35.7.35S77.77,344.47,77.77,344.23Z"/><path class="cls-1" d="M80,342.5h2.5V343h-1V345H81V343H80Z"/><path class="cls-1" d="M83.54,343v.57H85V344H83.54v.58h2V345H83v-2.5H85.5V343Z"/><path class="cls-1" d="M86.17,342.5H88a.71.71,0,0,1,.75.75.69.69,0,0,1-.66.72.47.47,0,0,1,.09.12l.57.91h-.57l-.63-1h-.85v1h-.5Zm1.8,1a.24.24,0,0,0,.25-.25v-.07A.24.24,0,0,0,88,343h-1.3v.57Z"/><path class="cls-1" d="M93.09,343.75a1.3,1.3,0,1,1-1.3-1.3A1.26,1.26,0,0,1,93.09,343.75Zm-.52,0a.78.78,0,1,0-1.55,0,.77.77,0,0,0,.77.82A.78.78,0,0,0,92.57,343.75Z"/><path class="cls-1" d="M95.62,343.52V344h-1.4v1h-.5v-2.5h2.4V343h-1.9v.57Z"/><path class="cls-1" d="M97.24,343v.57h1.45V344H97.24v.58h2V345H96.74v-2.5h2.45V343Z"/><path class="cls-1" d="M99.87,342.5h1.8a.71.71,0,0,1,.75.75.69.69,0,0,1-.66.72.47.47,0,0,1,.09.12l.57.91h-.57l-.63-1h-.85v1h-.5Zm1.8,1a.24.24,0,0,0,.25-.25v-.07a.24.24,0,0,0-.25-.25h-1.3v.57Z"/><path class="cls-1" d="M103.57,343v.57H105V344h-1.45v.58h2V345h-2.45v-2.5h2.45V343Z"/><path class="cls-1" d="M108,344h.54a1.3,1.3,0,1,1,0-.45H108a.74.74,0,0,0-.75-.6.83.83,0,0,0,0,1.65A.74.74,0,0,0,108,344Z"/><path class="cls-1" d="M109.15,345v-2.5h.5V345Z"/><path class="cls-1" d="M113,343.75a1.25,1.25,0,0,1-1.31,1.25H110.4v-2.5h1.25A1.24,1.24,0,0,1,113,343.75Zm-2.06.8h.75a.8.8,0,0,0,0-1.6h-.75Z"/><path class="cls-1" d="M116.05,343.75a1.3,1.3,0,1,1-1.3-1.3A1.26,1.26,0,0,1,116.05,343.75Zm-.52,0a.78.78,0,1,0-1.55,0,.77.77,0,0,0,.77.82A.78.78,0,0,0,115.53,343.75Z"/><path class="cls-1" d="M119.83,343.8v-1.3h.5v1.3a1.2,1.2,0,1,1-2.4,0v-1.3h.5v1.3a.7.7,0,1,0,1.4,0Z"/><path class="cls-1" d="M122.31,343.55h0l.78-1.05h.45V345h-.5v-1.75h0a1.07,1.07,0,0,1-.14.28l-.35.47h-.5l-.35-.47a1.07,1.07,0,0,1-.14-.28h0V345h-.5v-2.5h.45Z"/><path class="cls-1" d="M124.1,345l1-2.5h.75l1,2.5h-.55l-.2-.5h-1.32l-.21.5Zm1.87-.95-.45-1.1h0l-.45,1.1Z"/><path class="cls-1" d="M129.18,343v.57h1.45V344h-1.45v.58h1.95V345h-2.45v-2.5h2.45V343Z"/><path class="cls-1" d="M134.44,345h-.64l-.81-.94-.79.94h-.62l1.11-1.3-1-1.2h.63l.73.85.72-.85h.63l-1,1.2Z"/><path class="cls-1" d="M135.46,345H135v-2.5h1.8a.71.71,0,0,1,.75.75.7.7,0,0,1-.75.72h-1.3Zm0-1.48h1.3a.24.24,0,0,0,.25-.25v-.07a.24.24,0,0,0-.25-.25h-1.3Z"/><path class="cls-1" d="M138.63,343v.57h1.45V344h-1.45v.58h2V345h-2.45v-2.5h2.45V343Z"/><path class="cls-1" d="M141.26,342.5h1.8a.71.71,0,0,1,.75.75.69.69,0,0,1-.66.72.47.47,0,0,1,.09.12l.57.91h-.57l-.63-1h-.85v1h-.5Zm1.8,1a.24.24,0,0,0,.25-.25v-.07a.24.24,0,0,0-.25-.25h-1.3v.57Z"/><path class="cls-1" d="M144.46,345v-2.5h.5V345Z"/><path class="cls-1" d="M146.21,343v.57h1.45V344h-1.45v.58h1.95V345h-2.45v-2.5h2.45V343Z"/><path class="cls-1" d="M149.33,343.27V345h-.5v-2.5h.45l1.55,1.72V342.5h.5V345h-.45Z"/><path class="cls-1" d="M154,344h.53a1.24,1.24,0,0,1-1.28,1.08,1.3,1.3,0,1,1,0-2.6,1.24,1.24,0,0,1,1.28,1.07H154a.76.76,0,0,0-.75-.6.83.83,0,0,0,0,1.65A.76.76,0,0,0,154,344Z"/><path class="cls-1" d="M155.17,345v-2.5h.5V345Z"/><path class="cls-1" d="M156.19,345l1-2.5H158l1,2.5h-.55l-.2-.5h-1.32l-.21.5Zm1.87-.95-.45-1.1h-.05l-.45,1.1Z"/><path class="cls-1" d="M160.77,345v-2.5h.5V345Z"/><path class="cls-1" d="M162.52,343.27V345H162v-2.5h.45l1.55,1.72V342.5h.5V345h-.45Z"/><path class="cls-1" d="M167.19,344h.54a1.3,1.3,0,1,1,0-.45h-.54a.74.74,0,0,0-.75-.6.83.83,0,0,0,0,1.65A.74.74,0,0,0,167.19,344Z"/><path class="cls-1" d="M168.35,342.5h1.8a.71.71,0,0,1,.75.75.69.69,0,0,1-.65.72.94.94,0,0,1,.09.12l.56.91h-.56l-.64-1h-.85v1h-.5Zm1.8,1a.24.24,0,0,0,.25-.25v-.07a.24.24,0,0,0-.25-.25h-1.3v.57Z"/><path class="cls-1" d="M171.55,345v-2.5h.5V345Z"/><path class="cls-1" d="M173.12,342.5l.84,2.05h0l.84-2.05h.53l-1,2.5h-.75l-1-2.5Z"/><path class="cls-1" d="M176.4,343v.57h1.45V344H176.4v.58h1.95V345H175.9v-2.5h2.45V343Z"/><path class="cls-1" d="M179,342.5h.5v2.05H181V345h-2Z"/><path class="cls-1" d="M182.63,345l1-2.5h.75l1,2.5h-.54l-.21-.5h-1.32l-.2.5Zm1.87-.95-.45-1.1H184l-.45,1.1Z"/><path class="cls-1" d="M185.38,342.5h2.5V343h-1V345h-.5V343h-1Z"/><path class="cls-1" d="M189,343v.57h1.45V344H189v.58h2V345h-2.45v-2.5h2.45V343Z"/><path class="cls-1" d="M192.6,345l1-2.5h.75l1,2.5h-.54l-.2-.5h-1.32l-.21.5Zm1.87-.95L194,343H194l-.45,1.1Z"/><path class="cls-1" d="M196.93,344v-.45h1.28a1.23,1.23,0,0,1,0,.2,1.3,1.3,0,1,1-1.3-1.3,1.3,1.3,0,0,1,.93.36l-.36.36a.81.81,0,1,0-.57,1.4.75.75,0,0,0,.74-.57Z"/><path class="cls-1" d="M201.33,343.75a1.3,1.3,0,1,1-1.3-1.3A1.26,1.26,0,0,1,201.33,343.75Zm-.53,0a.78.78,0,1,0-.77.82A.77.77,0,0,0,200.8,343.75Z"/><path class="cls-1" d="M202,342.5h1.8a.71.71,0,0,1,.75.75.69.69,0,0,1-.65.72.94.94,0,0,1,.09.12l.56.91h-.56l-.64-1h-.85v1H202Zm1.8,1a.24.24,0,0,0,.25-.25v-.07a.24.24,0,0,0-.25-.25h-1.3v.57Z"/><path class="cls-1" d="M204.93,345l1-2.5h.75l1,2.5h-.54l-.21-.5h-1.32l-.2.5Zm1.87-.95-.45-1.1h0l-.45,1.1Z"/><path class="cls-1" d="M123.86,349.42c.62,0,1,.32,1,.8s-.42.83-1.08.83-1.18-.47-1.18-1.3.43-1.3,1.16-1.3,1,.3,1,.77h-.53c0-.18-.19-.3-.47-.3s-.59.23-.62.69A1.37,1.37,0,0,1,123.86,349.42Zm.5.8c0-.22-.2-.35-.59-.35a1.06,1.06,0,0,0-.58.2.57.57,0,0,0,.63.5C124.15,350.57,124.36,350.43,124.36,350.22Z"/><path class="cls-1" d="M127,350.27c0-.19-.18-.3-.53-.3h-.37v-.45h.37q.45,0,.45-.3c0-.19-.16-.3-.47-.3s-.48.11-.48.3h-.52c0-.5.35-.77,1-.77s1,.27,1,.77a.56.56,0,0,1-.27.51.56.56,0,0,1,.34.54c0,.51-.37.78-1,.78s-1.05-.27-1.05-.78H126c0,.2.18.3.52.3S127,350.47,127,350.27Z"/><path class="cls-1" d="M128.21,350.27a.61.61,0,0,1,.38-.54.58.58,0,0,1-.3-.51c0-.5.35-.77,1-.77s1,.27,1,.77a.58.58,0,0,1-.3.51.6.6,0,0,1,.37.54c0,.51-.37.78-1.05.78S128.21,350.78,128.21,350.27Zm1,.3c.34,0,.53-.1.53-.3s-.18-.3-.53-.3-.52.11-.52.3S128.92,350.57,129.26,350.57Zm-.45-1.35c0,.2.16.3.45.3s.45-.1.45-.3-.15-.3-.45-.3S128.81,349,128.81,349.22Z"/><path class="cls-1" d="M131,349.27c0-.5.35-.82,1-.82s1,.3,1,.77-.22.57-.85.82c-.37.14-.63.32-.63.51H133V351h-2.1v-.35c0-.41.36-.79,1-1,.4-.16.51-.24.51-.39s-.16-.3-.47-.3-.48.16-.48.35Z"/><path class="cls-1" d="M135.29,350.27c0-.19-.18-.3-.53-.3h-.37v-.45h.37q.45,0,.45-.3c0-.19-.16-.3-.47-.3s-.48.11-.48.3h-.52c0-.5.35-.77,1-.77s1,.27,1,.77a.56.56,0,0,1-.27.51.56.56,0,0,1,.34.54c0,.51-.37.78-1.05.78s-1-.27-1-.78h.53c0,.2.18.3.52.3S135.29,350.47,135.29,350.27Z"/><path class="cls-2" d="M21.67,25.49v2.76h-.8v-4h.72L24.07,27V24.25h.8v4h-.72Z"/><path class="cls-2" d="M26.51,27.29a.52.52,0,1,1-.52.52A.49.49,0,0,1,26.51,27.29Z"/><path class="cls-2" d="M29,28.25h-.8v-4H31a1.13,1.13,0,0,1,1.2,1.2A1.12,1.12,0,0,1,31,26.61H29Zm0-2.36H31a.38.38,0,0,0,.4-.4v-.12A.38.38,0,0,0,31,25H29Z"/><path class="cls-2" d="M33.23,24.25h2.88a1.13,1.13,0,0,1,1.2,1.2,1.1,1.1,0,0,1-1.05,1.15l.15.19.9,1.46h-.9l-1-1.64H34v1.64h-.8Zm2.88,1.64a.38.38,0,0,0,.4-.4v-.12a.38.38,0,0,0-.4-.4H34v.92Z"/><path class="cls-2" d="M38.35,28.25v-4h.8v4Z"/><path class="cls-2" d="M41.15,25.49v2.76h-.8v-4h.72L43.55,27V24.25h.8v4h-.72Z"/><path class="cls-2" d="M45.27,24.25h4V25h-1.6v3.28h-.8V25h-1.6Z"/><path class="cls-2" d="M49.91,28.49l2.4-4.8L53,24l-2.4,4.8Z"/><path class="cls-2" d="M56.72,27c0-.32-.35-.46-1.15-.46-1.27,0-1.81-.33-1.81-1.14s.64-1.26,1.84-1.26,1.84.51,1.84,1.28h-.8c0-.33-.42-.56-1-.56s-1,.19-1,.54.32.42,1.08.42c1.32,0,1.88.36,1.88,1.18s-.67,1.3-1.92,1.3-1.92-.51-1.92-1.28h.8c0,.34.45.56,1.12.56S56.72,27.4,56.72,27Z"/><path class="cls-2" d="M58.52,24.25h.8v3.28h2.4v.72h-3.2Z"/><path class="cls-2" d="M66.36,26.25a2.08,2.08,0,1,1-2.08-2.08A2,2,0,0,1,66.36,26.25Zm-.84,0a1.24,1.24,0,1,0-1.24,1.32A1.24,1.24,0,0,0,65.52,26.25Z"/><path class="cls-2" d="M66.72,28.25l1.64-4h1.2l1.64,4h-.87l-.33-.8H67.89l-.32.8Zm3-1.52L69,25h-.08l-.72,1.76Z"/><path class="cls-2" d="M72.84,25.49v2.76H72v-4h.72L75.24,27V24.25H76v4h-.72Z"/><path class="cls-2" d="M35.07,33.35a4.65,4.65,0,0,0,0,5l-.58.4a4.51,4.51,0,0,1-1-2.9,4.46,4.46,0,0,1,1-2.89Z"/><path class="cls-2" d="M36.67,37.85h-.79v-4h2.87a1.13,1.13,0,0,1,1.2,1.2,1.12,1.12,0,0,1-1.2,1.16H36.67Zm0-2.36h2.08a.38.38,0,0,0,.4-.4V35a.38.38,0,0,0-.4-.4H36.67Z"/><path class="cls-2" d="M44.83,35.85a2.08,2.08,0,1,1-2.08-2.08A2,2,0,0,1,44.83,35.85Zm-.84,0a1.24,1.24,0,1,0-1.24,1.32A1.24,1.24,0,0,0,44,35.85Z"/><path class="cls-2" d="M45.83,37.85v-4h.8v4Z"/><path class="cls-2" d="M48.63,35.09v2.76h-.8v-4h.72L51,36.61V33.85h.8v4h-.72Z"/><path class="cls-2" d="M52.75,33.85h4v.72h-1.6v3.28h-.8V34.57h-1.6Z"/><path class="cls-2" d="M60.43,36.63c0-.32-.35-.46-1.15-.46-1.26,0-1.81-.34-1.81-1.14s.64-1.26,1.84-1.26,1.84.51,1.84,1.28h-.8c0-.33-.41-.56-1-.56s-1,.19-1,.54.32.42,1.08.42c1.32,0,1.88.36,1.88,1.18s-.67,1.3-1.92,1.3-1.91-.51-1.91-1.28h.79c0,.34.45.56,1.12.56S60.43,37,60.43,36.63Z"/><path class="cls-2" d="M62.42,33a4.46,4.46,0,0,1,.95,2.89,4.51,4.51,0,0,1-.95,2.9l-.59-.4a4.59,4.59,0,0,0,0-5Z"/><path class="cls-2" d="M22.85,124.49v2.76h-.8v-4h.72L25.25,126v-2.76h.8v4h-.72Z"/><path class="cls-2" d="M27.69,126.29a.52.52,0,1,1,0,1,.52.52,0,0,1,0-1Z"/><path class="cls-2" d="M30.53,124H29.41v-.72h1.92v3.28h1.2v.72h-3.2v-.72h1.2Z"/><path class="cls-2" d="M33.69,124.49c0-.8.57-1.32,1.6-1.32s1.6.48,1.6,1.24c0,.58-.35.91-1.35,1.3-.6.24-1,.52-1,.82H37v.72H33.61v-.56c0-.66.59-1.25,1.63-1.66.63-.25.81-.39.81-.62s-.26-.48-.76-.48-.76.25-.76.56Z"/><path class="cls-2" d="M38.57,126.29a.52.52,0,1,1,0,1,.52.52,0,0,1,0-1Z"/><path class="cls-2" d="M40.21,123.25h3V124H41v.8h.8c1.08,0,1.68.45,1.68,1.26s-.6,1.3-1.68,1.3-1.68-.44-1.68-1.24H41c0,.31.29.48.84.48s.84-.19.84-.54-.28-.54-.84-.54h-1.6Z"/><path class="cls-2" d="M44.33,127.49l2.4-4.8.65.32-2.4,4.8Z"/><path class="cls-2" d="M49.5,124H48.38v-.72H50.3v3.28h1.2v.72H48.3v-.72h1.2Z"/><path class="cls-2" d="M53.14,126.29a.52.52,0,1,1-.52.52A.49.49,0,0,1,53.14,126.29Z"/><path class="cls-2" d="M56.54,124.73c1,0,1.64.51,1.64,1.28s-.66,1.32-1.72,1.32c-1.23,0-1.88-.74-1.88-2.08s.68-2.08,1.85-2.08c1,0,1.59.49,1.59,1.24h-.84c0-.29-.3-.48-.75-.48-.62,0-.94.36-1,1.1A2.24,2.24,0,0,1,56.54,124.73Zm.8,1.28c0-.36-.33-.56-.94-.56a1.64,1.64,0,0,0-.93.32.9.9,0,0,0,1,.8C57,126.57,57.34,126.35,57.34,126Z"/><path class="cls-2" d="M21.85,75.49v2.76h-.8v-4h.72L24.25,77V74.25h.8v4h-.72Z"/><path class="cls-2" d="M26.69,77.29a.52.52,0,1,1,0,1,.52.52,0,0,1,0-1Z"/><path class="cls-2" d="M29.53,75H28.41v-.72h1.92v3.28h1.2v.72h-3.2v-.72h1.2Z"/><path class="cls-2" d="M32.69,75.49c0-.8.57-1.32,1.6-1.32s1.6.48,1.6,1.24c0,.58-.35.91-1.35,1.3-.6.24-1,.52-1,.82H36v.72H32.61v-.56c0-.66.59-1.25,1.63-1.66.63-.25.81-.39.81-.62s-.26-.48-.76-.48-.76.25-.76.56Z"/><path class="cls-2" d="M37.57,77.29a.52.52,0,0,1,0,1,.52.52,0,1,1,0-1Z"/><path class="cls-2" d="M39.21,74.25h3V75H40v.8h.8c1.08,0,1.68.45,1.68,1.26s-.6,1.3-1.68,1.3-1.68-.44-1.68-1.24H40c0,.31.29.48.84.48s.84-.19.84-.54-.28-.54-.84-.54h-1.6Z"/><path class="cls-2" d="M43.33,78.49l2.4-4.8.65.32L44,78.81Z"/><path class="cls-2" d="M47.26,75.49c0-.8.57-1.32,1.6-1.32s1.6.48,1.6,1.24c0,.58-.35.91-1.35,1.3-.6.24-1,.52-1,.82h2.44v.72H47.18v-.56c0-.66.59-1.25,1.63-1.66.63-.25.81-.39.81-.62s-.26-.48-.76-.48-.76.25-.76.56Z"/><path class="cls-2" d="M52.14,77.29a.52.52,0,1,1-.52.52A.49.49,0,0,1,52.14,77.29Z"/><path class="cls-2" d="M57.46,76.25c0,1.34-.67,2.08-1.88,2.08s-1.88-.74-1.88-2.08.67-2.08,1.88-2.08S57.46,74.91,57.46,76.25Zm-.84,0c0-.86-.36-1.32-1-1.32s-1,.46-1,1.32.36,1.32,1,1.32S56.62,77.11,56.62,76.25Z"/><path class="cls-2" d="M228.73,76.25c0,1.34-.67,2.08-1.88,2.08S225,77.59,225,76.25s.68-2.08,1.88-2.08S228.73,74.91,228.73,76.25Zm-.84,0c0-.86-.36-1.32-1-1.32s-1,.46-1,1.32.36,1.32,1,1.32S227.89,77.11,227.89,76.25Z"/><path class="cls-2" d="M230.29,77.29a.52.52,0,1,1,0,1,.52.52,0,1,1,0-1Z"/><path class="cls-2" d="M232.49,78.25,234.05,75h-2.27v-.72H235v.64l-1.6,3.36Z"/><path class="cls-2" d="M228.45,125.84c0,1.07-.67,1.66-1.88,1.66s-1.87-.59-1.87-1.66.67-1.65,1.87-1.65S228.45,124.77,228.45,125.84Zm-.84,0a1,1,0,1,0-2.07,0,.93.93,0,0,0,1,1A.94.94,0,0,0,227.61,125.84Z"/><path class="cls-2" d="M230,126.67c.32,0,.53.17.53.41s-.21.42-.53.42-.51-.17-.51-.42S229.7,126.67,230,126.67Z"/><path class="cls-2" d="M233.41,125.43c1,0,1.64.4,1.64,1s-.66,1-1.72,1c-1.23,0-1.87-.59-1.87-1.66s.67-1.65,1.84-1.65c1,0,1.59.39,1.59,1h-.84c0-.23-.3-.39-.75-.39a.88.88,0,0,0-1,.88A2.65,2.65,0,0,1,233.41,125.43Zm.8,1c0-.29-.32-.45-.94-.45a1.93,1.93,0,0,0-.93.26c.12.43.43.63,1,.63S234.21,126.71,234.21,126.45Z"/><path class="cls-2" d="M228.45,125.84c0,1.07-.67,1.66-1.88,1.66s-1.87-.59-1.87-1.66.67-1.65,1.87-1.65S228.45,124.77,228.45,125.84Zm-.84,0a1,1,0,1,0-2.07,0,.93.93,0,0,0,1,1A.94.94,0,0,0,227.61,125.84Z"/><path class="cls-2" d="M230,126.67c.32,0,.53.17.53.41s-.21.42-.53.42-.51-.17-.51-.42S229.7,126.67,230,126.67Z"/><path class="cls-2" d="M233.41,125.43c1,0,1.64.4,1.64,1s-.66,1-1.72,1c-1.23,0-1.87-.59-1.87-1.66s.67-1.65,1.84-1.65c1,0,1.59.39,1.59,1h-.84c0-.23-.3-.39-.75-.39a.88.88,0,0,0-1,.88A2.65,2.65,0,0,1,233.41,125.43Zm.8,1c0-.29-.32-.45-.94-.45a1.93,1.93,0,0,0-.93.26c.12.43.43.63,1,.63S234.21,126.71,234.21,126.45Z"/><path class="cls-2" d="M228.45,188.84c0,1.07-.67,1.66-1.88,1.66s-1.87-.59-1.87-1.66.67-1.65,1.87-1.65S228.45,187.77,228.45,188.84Zm-.84,0a1,1,0,1,0-2.07,0,.93.93,0,0,0,1,1A.94.94,0,0,0,227.61,188.84Z"/><path class="cls-2" d="M230,189.67c.32,0,.53.17.53.41s-.21.42-.53.42-.51-.17-.51-.42S229.7,189.67,230,189.67Z"/><path class="cls-2" d="M231.66,187.25h3v.58h-2.19v.63h.79c1.08,0,1.68.36,1.68,1s-.6,1-1.68,1-1.67-.35-1.67-1h.84c0,.25.28.38.83.38s.84-.15.84-.43-.28-.43-.84-.43h-1.59Z"/><path class="cls-2" d="M228.44,244.84c0,1.07-.67,1.66-1.87,1.66s-1.88-.59-1.88-1.66.67-1.65,1.88-1.65S228.44,243.77,228.44,244.84Zm-.83,0a1,1,0,1,0-1,1A.94.94,0,0,0,227.61,244.84Z"/><path class="cls-2" d="M230,245.67c.31,0,.52.17.52.41s-.21.42-.52.42-.52-.17-.52-.42S229.69,245.67,230,245.67Z"/><path class="cls-2" d="M233.53,245.8h-2.24v-.51l2.32-2h.72v2h.72v.58h-.72v.63h-.8Zm0-.58v-1.07l-1.23,1.07Z"/><path class="cls-2" d="M21.85,187.49v2.76h-.8v-4h.72L24.25,189v-2.76h.8v4h-.72Z"/><path class="cls-2" d="M26.69,189.29a.52.52,0,1,1,0,1,.52.52,0,0,1,0-1Z"/><path class="cls-2" d="M29.53,187H28.41v-.72h1.92v3.28h1.2v.72h-3.2v-.72h1.2Z"/><path class="cls-2" d="M36.41,188.25c0,1.34-.67,2.08-1.88,2.08s-1.88-.74-1.88-2.08.68-2.08,1.88-2.08S36.41,186.91,36.41,188.25Zm-.84,0c0-.86-.36-1.32-1-1.32s-1,.46-1,1.32.36,1.32,1,1.32S35.57,189.11,35.57,188.25Z"/><path class="cls-2" d="M37.25,190.49l2.4-4.8.65.32-2.4,4.8Z"/><path class="cls-2" d="M42.42,187H41.3v-.72h1.92v3.28h1.2v.72h-3.2v-.72h1.2Z"/><path class="cls-2" d="M46.06,189.29a.52.52,0,1,1-.52.52A.49.49,0,0,1,46.06,189.29Z"/><path class="cls-2" d="M47.66,187.49c0-.8.57-1.32,1.6-1.32s1.6.48,1.6,1.24c0,.58-.35.91-1.35,1.3-.6.24-1,.52-1,.82h2.44v.72H47.58v-.56c0-.66.59-1.25,1.63-1.66.63-.25.81-.39.81-.62s-.26-.48-.76-.48-.76.25-.76.56Z"/><path class="cls-2" d="M52.1,186.25h3V187H52.9v.8h.8c1.08,0,1.68.45,1.68,1.26s-.6,1.3-1.68,1.3S52,189.89,52,189.09h.84c0,.31.29.48.84.48s.84-.19.84-.54-.29-.54-.84-.54H52.1Z"/><path class="cls-2" d="M21.85,243.49v2.76h-.8v-4h.72L24.25,245v-2.76h.8v4h-.72Z"/><path class="cls-2" d="M26.69,245.29a.52.52,0,0,1,0,1,.52.52,0,1,1,0-1Z"/><path class="cls-2" d="M28.25,245.09a1,1,0,0,1,.6-.86,1,1,0,0,1-.48-.82c0-.8.56-1.24,1.56-1.24s1.56.44,1.56,1.24a.93.93,0,0,0,.12,1.68c0,.8-.6,1.24-1.68,1.24S28.25,245.89,28.25,245.09Zm1.68.48c.55,0,.84-.17.84-.48s-.28-.48-.84-.48-.84.17-.84.48S29.38,245.57,29.93,245.57Zm-.72-2.16c0,.31.25.48.72.48s.72-.17.72-.48-.24-.48-.72-.48S29.21,243.1,29.21,243.41Z"/><path class="cls-2" d="M32.45,246.49l2.4-4.8.65.32-2.4,4.8Z"/><path class="cls-2" d="M37.62,243H36.5v-.72h1.92v3.28h1.2v.72h-3.2v-.72h1.2Z"/><path class="cls-2" d="M41.26,245.29a.52.52,0,1,1-.52.52A.49.49,0,0,1,41.26,245.29Z"/><path class="cls-2" d="M46.58,244.25c0,1.34-.67,2.08-1.88,2.08s-1.88-.74-1.88-2.08.67-2.08,1.88-2.08S46.58,242.91,46.58,244.25Zm-.84,0c0-.86-.36-1.32-1-1.32s-1,.46-1,1.32.36,1.32,1,1.32S45.74,245.11,45.74,244.25Z"/><path class="cls-2" d="M21.85,293.49v2.76h-.8v-4h.72L24.25,295v-2.76h.8v4h-.72Z"/><path class="cls-2" d="M26.69,295.29a.52.52,0,0,1,0,1,.52.52,0,1,1,0-1Z"/><path class="cls-2" d="M30.09,293.73c1,0,1.64.51,1.64,1.28s-.66,1.32-1.72,1.32c-1.23,0-1.88-.74-1.88-2.08s.68-2.08,1.85-2.08c1,0,1.59.49,1.59,1.24h-.84c0-.29-.3-.48-.75-.48-.62,0-.94.36-1,1.1A2.24,2.24,0,0,1,30.09,293.73Zm.8,1.28c0-.36-.32-.56-.94-.56a1.64,1.64,0,0,0-.93.32.9.9,0,0,0,1,.8C30.55,295.57,30.89,295.35,30.89,295Z"/><path class="cls-2" d="M33.17,295.29a.52.52,0,1,1,0,1,.52.52,0,1,1,0-1Z"/><path class="cls-2" d="M37.25,295.09c0-.31-.28-.48-.84-.48h-.6v-.72h.6c.48,0,.72-.17.72-.48s-.26-.48-.76-.48-.76.17-.76.48h-.84c0-.8.57-1.24,1.6-1.24s1.6.44,1.6,1.24a.93.93,0,0,1-.42.82.89.89,0,0,1,.54.86c0,.8-.6,1.24-1.68,1.24s-1.68-.44-1.68-1.24h.84c0,.31.29.48.84.48S37.25,295.4,37.25,295.09Z"/><path class="cls-2" d="M38.93,296.49l2.4-4.8L42,292l-2.4,4.8Z"/><path class="cls-2" d="M46.58,294.25c0,1.34-.67,2.08-1.88,2.08s-1.88-.74-1.88-2.08.67-2.08,1.88-2.08S46.58,292.91,46.58,294.25Zm-.84,0c0-.86-.36-1.32-1-1.32s-1,.46-1,1.32.36,1.32,1,1.32S45.74,295.11,45.74,294.25Z"/><path class="cls-2" d="M48.14,295.29a.52.52,0,1,1-.52.52A.49.49,0,0,1,48.14,295.29Z"/><path class="cls-2" d="M49.7,295.09a1,1,0,0,1,.6-.86,1,1,0,0,1-.48-.82c0-.8.56-1.24,1.56-1.24s1.56.44,1.56,1.24a.93.93,0,0,0,.12,1.68c0,.8-.6,1.24-1.68,1.24S49.7,295.89,49.7,295.09Zm1.68.48c.55,0,.84-.17.84-.48s-.29-.48-.84-.48-.84.17-.84.48S50.83,295.57,51.38,295.57Zm-.72-2.16c0,.31.25.48.72.48s.72-.17.72-.48-.25-.48-.72-.48S50.66,293.1,50.66,293.41Z"/><path class="cls-2" d="M21.85,334.49v2.76h-.8v-4h.72L24.25,336v-2.76h.8v4h-.72Z"/><path class="cls-2" d="M26.69,336.29a.52.52,0,0,1,0,1,.52.52,0,1,1,0-1Z"/><path class="cls-2" d="M28.33,333.25h3V334h-2.2v.8h.8c1.08,0,1.68.45,1.68,1.26s-.6,1.3-1.68,1.3-1.68-.44-1.68-1.24h.84c0,.31.29.48.84.48s.84-.19.84-.54-.28-.54-.84-.54h-1.6Z"/><path class="cls-2" d="M32.45,337.49l2.4-4.8.65.32-2.4,4.8Z"/><path class="cls-2" d="M40.1,335.25c0,1.34-.67,2.08-1.88,2.08s-1.88-.74-1.88-2.08.67-2.08,1.88-2.08S40.1,333.91,40.1,335.25Zm-.84,0c0-.86-.36-1.32-1-1.32s-1,.46-1,1.32.36,1.32,1,1.32S39.26,336.11,39.26,335.25Z"/><path class="cls-2" d="M41.66,336.29a.52.52,0,1,1-.52.52A.49.49,0,0,1,41.66,336.29Z"/><path class="cls-2" d="M45.06,334.73c1,0,1.64.51,1.64,1.28S46,337.33,45,337.33c-1.23,0-1.88-.74-1.88-2.08s.68-2.08,1.85-2.08c1,0,1.59.49,1.59,1.24H45.7c0-.29-.3-.48-.75-.48-.62,0-.94.36-1,1.1A2.24,2.24,0,0,1,45.06,334.73Zm.8,1.28c0-.36-.33-.56-.94-.56a1.64,1.64,0,0,0-.93.32.9.9,0,0,0,1,.8C45.52,336.57,45.86,336.35,45.86,336Z"/><path class="cls-2" d="M50.14,336.09c0-.31-.29-.48-.84-.48h-.6v-.72h.6c.47,0,.72-.17.72-.48s-.26-.48-.76-.48-.76.17-.76.48h-.84c0-.8.57-1.24,1.6-1.24s1.6.44,1.6,1.24a.93.93,0,0,1-.42.82.89.89,0,0,1,.54.86c0,.8-.6,1.24-1.68,1.24s-1.68-.44-1.68-1.24h.84c0,.31.29.48.84.48S50.14,336.4,50.14,336.09Z"/><path class="cls-2" d="M206.51,24.25h.8v3.28h2.4v.72h-3.2Z"/><path class="cls-2" d="M214.35,26.25a2.08,2.08,0,1,1-2.08-2.08A2,2,0,0,1,214.35,26.25Zm-.84,0a1.24,1.24,0,1,0-1.24,1.32A1.24,1.24,0,0,0,213.51,26.25Z"/><path class="cls-2" d="M217.23,26.65v-.72h2.06c0,.11,0,.21,0,.32a2.08,2.08,0,1,1-2.08-2.08,2.07,2.07,0,0,1,1.49.59l-.57.57a1.2,1.2,0,0,0-.92-.4,1.32,1.32,0,0,0,0,2.64,1.2,1.2,0,0,0,1.19-.92Z"/><path class="cls-2" d="M222.29,25.93h.06l1.24-1.68h.72v4h-.8v-2.8h0a1.59,1.59,0,0,1-.23.45l-.56.75h-.8l-.56-.75a1.75,1.75,0,0,1-.22-.45h0v2.8h-.8v-4H221Z"/><path class="cls-2" d="M225.15,28.25l1.64-4H228l1.64,4h-.86l-.33-.8h-2.11l-.33.8Zm3-1.52L227.43,25h-.08l-.72,1.76Z"/><path class="cls-2" d="M230.47,24.25h2.88a1.13,1.13,0,0,1,1.2,1.2,1.1,1.1,0,0,1-1.05,1.15,1.73,1.73,0,0,1,.15.19l.9,1.46h-.9l-1-1.64h-1.36v1.64h-.8Zm2.88,1.64a.38.38,0,0,0,.4-.4v-.12a.38.38,0,0,0-.4-.4h-2.08v.92Z"/><path class="cls-2" d="M210.58,33.35a4.65,4.65,0,0,0,0,5l-.58.4a4.51,4.51,0,0,1-.95-2.9A4.46,4.46,0,0,1,210,33Z"/><path class="cls-2" d="M213.26,37.05H211v-.64l2.32-2.56h.72v2.48h.73v.72h-.73v.8h-.8Zm0-.72V35L212,36.33Z"/><path class="cls-2" d="M219.47,35.85c0,1.34-.67,2.08-1.88,2.08s-1.88-.74-1.88-2.08.67-2.08,1.88-2.08S219.47,34.51,219.47,35.85Zm-.84,0c0-.86-.36-1.32-1-1.32s-1,.46-1,1.32.36,1.32,1,1.32S218.63,36.71,218.63,35.85Z"/><path class="cls-2" d="M223.67,36.21h.86a2.08,2.08,0,1,1,0-.72h-.86a1.21,1.21,0,0,0-1.2-1,1.32,1.32,0,0,0,0,2.64A1.21,1.21,0,0,0,223.67,36.21Z"/><path class="cls-2" d="M227.5,35.53h.06l1.24-1.68h.73v4h-.81v-2.8h0a1.75,1.75,0,0,1-.22.45l-.56.75h-.8l-.56-.75a1.59,1.59,0,0,1-.23-.45h0v2.8h-.8v-4h.72Z"/><path class="cls-2" d="M230.91,33a4.46,4.46,0,0,1,1,2.89,4.51,4.51,0,0,1-1,2.9l-.58-.4a4.65,4.65,0,0,0,0-5Z"/><path class="cls-1" d="M34.38,85.15H36v6.56h4.8v1.44h-6.4Z"/><path class="cls-1" d="M44.22,86.59v1.84h4.64v1.44H44.22v1.84h6.24v1.44H42.62v-8h7.84v1.44Z"/><path class="cls-1" d="M52.62,93.15v-8h1.6v8Z"/><path class="cls-1" d="M55.9,93.15l3.28-8h2.4l3.28,8H63.14l-.66-1.6H58.25l-.65,1.6Zm6-3-1.44-3.52h-.16l-1.44,3.52Z"/><path class="cls-1" d="M69.82,93.15l3.28-8h2.4l3.28,8H77.06l-.66-1.6H72.17l-.65,1.6Zm6-3-1.44-3.52h-.16l-1.44,3.52Z"/><path class="cls-1" d="M88.22,91.55H83.74V90.27l4.64-5.12h1.44v5h1.46v1.44H89.82v1.6h-1.6Zm0-1.44v-2.7l-2.45,2.7Z"/><path class="cls-1" d="M100.64,89.15c0,2.67-1.35,4.16-3.76,4.16s-3.76-1.47-3.76-4.16S94.46,85,96.88,85,100.64,86.46,100.64,89.15Zm-1.68,0c0-1.73-.72-2.64-2.08-2.64s-2.08.91-2.08,2.64.72,2.64,2.08,2.64S99,90.86,99,89.15Z"/><path class="cls-1" d="M109,89.87h1.71a4.16,4.16,0,1,1,0-1.44H109a2.41,2.41,0,0,0-2.4-1.92,2.65,2.65,0,0,0,0,5.28A2.42,2.42,0,0,0,109,89.87Z"/><path class="cls-1" d="M116.7,88.51h.11l2.5-3.36h1.44v8h-1.6v-5.6h0a3.49,3.49,0,0,1-.45.9L117.55,90H116l-1.12-1.5a3.49,3.49,0,0,1-.45-.9h0v5.6h-1.6v-8h1.44Z"/><path class="cls-1" d="M135.31,89.15a4,4,0,0,1-4.16,4h-4v-8h4A4,4,0,0,1,135.31,89.15Zm-6.56,2.56h2.4a2.56,2.56,0,0,0,0-5.12h-2.4Z"/><path class="cls-1" d="M138.91,86.59v1.84h4.64v1.44h-4.64v1.84h6.24v1.44h-7.84v-8h7.84v1.44Z"/><path class="cls-1" d="M159.47,89.15a4,4,0,0,1-4.16,4h-4v-8h4A4,4,0,0,1,159.47,89.15Zm-6.56,2.56h2.4a2.56,2.56,0,0,0,0-5.12h-2.4Z"/><path class="cls-1" d="M161.47,93.15v-8h1.6v8Z"/><path class="cls-1" d="M171.15,90.7c0-.64-.7-.91-2.31-.91-2.52,0-3.61-.67-3.61-2.29S166.51,85,168.91,85c2.21,0,3.68,1,3.68,2.56H171c0-.67-.83-1.12-2.08-1.12s-2.08.37-2.08,1.07.64.85,2.16.85c2.64,0,3.76.72,3.76,2.35s-1.34,2.61-3.84,2.61c-2.31,0-3.84-1-3.84-2.56h1.6c0,.67.89,1.12,2.24,1.12S171.15,91.46,171.15,90.7Z"/><path class="cls-1" d="M173.87,85.15h8v1.44h-3.2v6.56h-1.6V86.59h-3.2Z"/><path class="cls-1" d="M181.71,93.15l3.28-8h2.4l3.28,8h-1.73l-.65-1.6h-4.23l-.66,1.6Zm6-3-1.44-3.52h-.16l-1.44,3.52Z"/><path class="cls-1" d="M194,87.63v5.52h-1.6v-8h1.44l5,5.52V85.15h1.6v8h-1.44Z"/><path class="cls-1" d="M208.91,89.87h1.71a4.16,4.16,0,1,1,0-1.44h-1.71a2.41,2.41,0,0,0-2.4-1.92,2.65,2.65,0,0,0,0,5.28A2.42,2.42,0,0,0,208.91,89.87Z"/><path class="cls-1" d="M212.62,93.15v-8h1.6v8Z"/><path class="cls-1" d="M215.9,93.15l3.28-8h2.4l3.28,8h-1.73l-.65-1.6h-4.23l-.65,1.6Zm6-3-1.44-3.52h-.16l-1.44,3.52Z"/><path class="cls-2" d="M228.45,294.84c0,1.07-.67,1.66-1.88,1.66s-1.87-.59-1.87-1.66.67-1.65,1.87-1.65S228.45,293.77,228.45,294.84Zm-.84,0a1,1,0,1,0-2.07,0,.93.93,0,0,0,1,1.05A.94.94,0,0,0,227.61,294.84Z"/><path class="cls-2" d="M230,295.67c.32,0,.53.17.53.41s-.21.42-.53.42-.51-.17-.51-.42S229.7,295.67,230,295.67Z"/><path class="cls-2" d="M234.09,295.51c0-.25-.28-.38-.84-.38h-.6v-.57h.6c.48,0,.72-.14.72-.38s-.26-.39-.76-.39-.75.14-.75.39h-.84c0-.64.56-1,1.59-1s1.6.35,1.6,1a.69.69,0,0,1-.42.64.73.73,0,0,1,.54.69c0,.64-.6,1-1.68,1s-1.67-.35-1.67-1h.84c0,.25.28.38.83.38S234.09,295.76,234.09,295.51Z"/><path class="cls-2" d="M228.45,335.84c0,1.07-.67,1.66-1.88,1.66s-1.87-.59-1.87-1.66.67-1.65,1.87-1.65S228.45,334.77,228.45,335.84Zm-.84,0a1,1,0,1,0-2.07,0,.93.93,0,0,0,1,1.05A.94.94,0,0,0,227.61,335.84Z"/><path class="cls-2" d="M230,336.67c.32,0,.53.17.53.41s-.21.42-.53.42-.51-.17-.51-.42S229.7,336.67,230,336.67Z"/><path class="cls-2" d="M231.62,335.24c0-.64.56-1.05,1.59-1.05s1.6.38,1.6,1c0,.45-.35.72-1.35,1-.6.19-1,.41-1,.65h2.43v.57h-3.35V337c0-.52.58-1,1.62-1.32.63-.2.81-.31.81-.49s-.26-.39-.76-.39-.75.2-.75.45Z"/></svg>